<svg viewBox="0 0 314.022566929 235.17619685" width="314.022566929pt" height="235.17619685pt" xmlns="http://www.w3.org/2000/svg" xmlns:xlink="http://www.w3.org/1999/xlink" xmlns:h5="http://www.w3.org/1999/xhtml"><path fill="#ffffff" fill-rule="nonzero" d="M 0 0v 235.17619685h 314.022566929v -235.17619685Z "/><g transform="translate(5.5 5.5)"><g transform="translate(19.558 12.738)"><path fill="none" stroke="#cccccc" stroke-width="0.5" stroke-linecap="butt" stroke-linejoin="miter" stroke-miterlimit="4" transform="translate(16.198902184)" d="M 0 0v 198.42519685"/><path fill="none" stroke="#cccccc" stroke-width="0.5" stroke-linecap="butt" stroke-linejoin="miter" stroke-miterlimit="4" transform="translate(49.613303029)" d="M 0 0v 198.42519685"/><path fill="none" stroke="#cccccc" stroke-width="0.5" stroke-linecap="butt" stroke-linejoin="miter" stroke-miterlimit="4" transform="translate(83.027703874)" d="M 0 0v 198.42519685"/><path fill="none" stroke="#cccccc" stroke-width="0.5" stroke-linecap="butt" stroke-linejoin="miter" stroke-miterlimit="4" transform="translate(116.442104719)" d="M 0 0v 198.42519685"/><path fill="none" stroke="#cccccc" stroke-width="0.5" stroke-linecap="butt" stroke-linejoin="miter" stroke-miterlimit="4" transform="translate(149.856505564)" d="M 0 0v 198.42519685"/><path fill="none" stroke="#cccccc" stroke-width="0.5" stroke-linecap="butt" stroke-linejoin="miter" stroke-miterlimit="4" transform="translate(183.270906409)" d="M 0 0v 198.42519685"/><path fill="none" stroke="#cccccc" stroke-width="0.5" stroke-linecap="butt" stroke-linejoin="miter" stroke-miterlimit="4" transform="translate(216.685307254)" d="M 0 0v 198.42519685"/><path fill="none" stroke="#cccccc" stroke-width="0.5" stroke-linecap="butt" stroke-linejoin="miter" stroke-miterlimit="4" transform="translate(250.099708099)" d="M 0 0v 198.42519685"/><path fill="none" stroke="#cccccc" stroke-width="0.5" stroke-linecap="butt" stroke-linejoin="miter" stroke-miterlimit="4" transform="translate(0 167.746635084)" d="M 0 0h 283.464566929"/><path fill="none" stroke="#cccccc" stroke-width="0.5" stroke-linecap="butt" stroke-linejoin="miter" stroke-miterlimit="4" transform="translate(0 134.332234239)" d="M 0 0h 283.464566929"/><path fill="none" stroke="#cccccc" stroke-width="0.5" stroke-linecap="butt" stroke-linejoin="miter" stroke-miterlimit="4" transform="translate(0 100.917833394)" d="M 0 0h 283.464566929"/><path fill="none" stroke="#cccccc" stroke-width="0.5" stroke-linecap="butt" stroke-linejoin="miter" stroke-miterlimit="4" transform="translate(0 67.503432549)" d="M 0 0h 283.464566929"/><path fill="none" stroke="#cccccc" stroke-width="0.5" stroke-linecap="butt" stroke-linejoin="miter" stroke-miterlimit="4" transform="translate(0 34.089031704)" d="M 0 0h 283.464566929"/><path fill="none" stroke="#cccccc" stroke-width="0.5" stroke-linecap="butt" stroke-linejoin="miter" stroke-miterlimit="4" transform="translate(0 0.674630859)" d="M 0 0h 283.464566929"/><g clip-path="url(#cF5A82E6F9662B2B20E7875B7FEF25729)"><path fill="none" stroke="#94a4a2" stroke-width="0.7" stroke-linecap="butt" stroke-linejoin="miter" stroke-miterlimit="4" d="M 0 0m 83.027703874 167.746635084l 4.009728101 -5.346304135l 4.009728101 -5.346304135l 4.009728101 -5.346304135l 4.009728101 -5.346304135l 4.009728101 -5.346304135l 4.009728101 -5.346304135l 4.009728101 -5.346304135l 4.009728101 -5.346304135l 4.009728101 -5.346304135l 4.009728101 -5.346304135l 4.009728101 -5.346304135l 4.009728101 -5.346304135l 4.009728101 -5.346304135l 4.009728101 -5.346304135l 4.009728101 -5.346304135l 4.009728101 -5.346304135l 4.009728101 -5.346304135l 4.009728101 -5.346304135l 4.009728101 -5.346304135l 4.009728101 -5.346304135l 4.009728101 -5.346304135l 4.009728101 -5.346304135l 4.009728101 -5.346304135l 4.009728101 -5.346304135l 4.009728101 -5.346304135l 4.009728101 -5.346304135l 4.009728101 -5.346304135l 4.009728101 -5.346304135l 4.009728101 -5.346304135"/><path fill="#94a4a2" fill-rule="nonzero" stroke="#94a4a2" stroke-width="0.7" stroke-linecap="butt" stroke-linejoin="miter" stroke-miterlimit="4" transform="translate(82.027703874 166.746635084)" d="M 0 0m 0 1c 0 -0.551784 0.448216 -1 1 -1c 0.551784 0 1 0.448216 1 1c 0 0.551784 -0.448216 1 -1 1c -0.551784 0 -1 -0.448216 -1 -1"/><path fill="#94a4a2" fill-rule="nonzero" stroke="#94a4a2" stroke-width="0.7" stroke-linecap="butt" stroke-linejoin="miter" stroke-miterlimit="4" transform="translate(86.037431975 161.400330948)" d="M 0 0m 0 1c 0 -0.551784 0.448216 -1 1 -1c 0.551784 0 1 0.448216 1 1c 0 0.551784 -0.448216 1 -1 1c -0.551784 0 -1 -0.448216 -1 -1"/><path fill="#94a4a2" fill-rule="nonzero" stroke="#94a4a2" stroke-width="0.7" stroke-linecap="butt" stroke-linejoin="miter" stroke-miterlimit="4" transform="translate(90.047160077 156.054026813)" d="M 0 0m 0 1c 0 -0.551784 0.448216 -1 1 -1c 0.551784 0 1 0.448216 1 1c 0 0.551784 -0.448216 1 -1 1c -0.551784 0 -1 -0.448216 -1 -1"/><path fill="#94a4a2" fill-rule="nonzero" stroke="#94a4a2" stroke-width="0.7" stroke-linecap="butt" stroke-linejoin="miter" stroke-miterlimit="4" transform="translate(94.056888178 150.707722678)" d="M 0 0m 0 1c 0 -0.551784 0.448216 -1 1 -1c 0.551784 0 1 0.448216 1 1c 0 0.551784 -0.448216 1 -1 1c -0.551784 0 -1 -0.448216 -1 -1"/><path fill="#94a4a2" fill-rule="nonzero" stroke="#94a4a2" stroke-width="0.7" stroke-linecap="butt" stroke-linejoin="miter" stroke-miterlimit="4" transform="translate(98.06661628 145.361418543)" d="M 0 0m 0 1c 0 -0.551784 0.448216 -1 1 -1c 0.551784 0 1 0.448216 1 1c 0 0.551784 -0.448216 1 -1 1c -0.551784 0 -1 -0.448216 -1 -1"/><path fill="#94a4a2" fill-rule="nonzero" stroke="#94a4a2" stroke-width="0.7" stroke-linecap="butt" stroke-linejoin="miter" stroke-miterlimit="4" transform="translate(102.076344381 140.015114408)" d="M 0 0m 0 1c 0 -0.551784 0.448216 -1 1 -1c 0.551784 0 1 0.448216 1 1c 0 0.551784 -0.448216 1 -1 1c -0.551784 0 -1 -0.448216 -1 -1"/><path fill="#94a4a2" fill-rule="nonzero" stroke="#94a4a2" stroke-width="0.7" stroke-linecap="butt" stroke-linejoin="miter" stroke-miterlimit="4" transform="translate(106.086072482 134.668810272)" d="M 0 0m 0 1c 0 -0.551784 0.448216 -1 1 -1c 0.551784 0 1 0.448216 1 1c 0 0.551784 -0.448216 1 -1 1c -0.551784 0 -1 -0.448216 -1 -1"/><path fill="#94a4a2" fill-rule="nonzero" stroke="#94a4a2" stroke-width="0.7" stroke-linecap="butt" stroke-linejoin="miter" stroke-miterlimit="4" transform="translate(110.095800584 129.322506137)" d="M 0 0m 0 1c 0 -0.551784 0.448216 -1 1 -1c 0.551784 0 1 0.448216 1 1c 0 0.551784 -0.448216 1 -1 1c -0.551784 0 -1 -0.448216 -1 -1"/><path fill="#94a4a2" fill-rule="nonzero" stroke="#94a4a2" stroke-width="0.7" stroke-linecap="butt" stroke-linejoin="miter" stroke-miterlimit="4" transform="translate(114.105528685 123.976202002)" d="M 0 0m 0 1c 0 -0.551784 0.448216 -1 1 -1c 0.551784 0 1 0.448216 1 1c 0 0.551784 -0.448216 1 -1 1c -0.551784 0 -1 -0.448216 -1 -1"/><path fill="#94a4a2" fill-rule="nonzero" stroke="#94a4a2" stroke-width="0.7" stroke-linecap="butt" stroke-linejoin="miter" stroke-miterlimit="4" transform="translate(118.115256787 118.629897867)" d="M 0 0m 0 1c 0 -0.551784 0.448216 -1 1 -1c 0.551784 0 1 0.448216 1 1c 0 0.551784 -0.448216 1 -1 1c -0.551784 0 -1 -0.448216 -1 -1"/><path fill="#94a4a2" fill-rule="nonzero" stroke="#94a4a2" stroke-width="0.7" stroke-linecap="butt" stroke-linejoin="miter" stroke-miterlimit="4" transform="translate(122.124984888 113.283593732)" d="M 0 0m 0 1c 0 -0.551784 0.448216 -1 1 -1c 0.551784 0 1 0.448216 1 1c 0 0.551784 -0.448216 1 -1 1c -0.551784 0 -1 -0.448216 -1 -1"/><path fill="#94a4a2" fill-rule="nonzero" stroke="#94a4a2" stroke-width="0.7" stroke-linecap="butt" stroke-linejoin="miter" stroke-miterlimit="4" transform="translate(126.134712989 107.937289597)" d="M 0 0m 0 1c 0 -0.551784 0.448216 -1 1 -1c 0.551784 0 1 0.448216 1 1c 0 0.551784 -0.448216 1 -1 1c -0.551784 0 -1 -0.448216 -1 -1"/><path fill="#94a4a2" fill-rule="nonzero" stroke="#94a4a2" stroke-width="0.7" stroke-linecap="butt" stroke-linejoin="miter" stroke-miterlimit="4" transform="translate(130.144441091 102.590985461)" d="M 0 0m 0 1c 0 -0.551784 0.448216 -1 1 -1c 0.551784 0 1 0.448216 1 1c 0 0.551784 -0.448216 1 -1 1c -0.551784 0 -1 -0.448216 -1 -1"/><path fill="#94a4a2" fill-rule="nonzero" stroke="#94a4a2" stroke-width="0.7" stroke-linecap="butt" stroke-linejoin="miter" stroke-miterlimit="4" transform="translate(134.154169192 97.244681326)" d="M 0 0m 0 1c 0 -0.551784 0.448216 -1 1 -1c 0.551784 0 1 0.448216 1 1c 0 0.551784 -0.448216 1 -1 1c -0.551784 0 -1 -0.448216 -1 -1"/><path fill="#94a4a2" fill-rule="nonzero" stroke="#94a4a2" stroke-width="0.7" stroke-linecap="butt" stroke-linejoin="miter" stroke-miterlimit="4" transform="translate(138.163897294 91.898377191)" d="M 0 0m 0 1c 0 -0.551784 0.448216 -1 1 -1c 0.551784 0 1 0.448216 1 1c 0 0.551784 -0.448216 1 -1 1c -0.551784 0 -1 -0.448216 -1 -1"/><path fill="#94a4a2" fill-rule="nonzero" stroke="#94a4a2" stroke-width="0.7" stroke-linecap="butt" stroke-linejoin="miter" stroke-miterlimit="4" transform="translate(142.173625395 86.552073056)" d="M 0 0m 0 1c 0 -0.551784 0.448216 -1 1 -1c 0.551784 0 1 0.448216 1 1c 0 0.551784 -0.448216 1 -1 1c -0.551784 0 -1 -0.448216 -1 -1"/><path fill="#94a4a2" fill-rule="nonzero" stroke="#94a4a2" stroke-width="0.7" stroke-linecap="butt" stroke-linejoin="miter" stroke-miterlimit="4" transform="translate(146.183353496 81.205768921)" d="M 0 0m 0 1c 0 -0.551784 0.448216 -1 1 -1c 0.551784 0 1 0.448216 1 1c 0 0.551784 -0.448216 1 -1 1c -0.551784 0 -1 -0.448216 -1 -1"/><path fill="#94a4a2" fill-rule="nonzero" stroke="#94a4a2" stroke-width="0.7" stroke-linecap="butt" stroke-linejoin="miter" stroke-miterlimit="4" transform="translate(150.193081598 75.859464785)" d="M 0 0m 0 1c 0 -0.551784 0.448216 -1 1 -1c 0.551784 0 1 0.448216 1 1c 0 0.551784 -0.448216 1 -1 1c -0.551784 0 -1 -0.448216 -1 -1"/><path fill="#94a4a2" fill-rule="nonzero" stroke="#94a4a2" stroke-width="0.7" stroke-linecap="butt" stroke-linejoin="miter" stroke-miterlimit="4" transform="translate(154.202809699 70.51316065)" d="M 0 0m 0 1c 0 -0.551784 0.448216 -1 1 -1c 0.551784 0 1 0.448216 1 1c 0 0.551784 -0.448216 1 -1 1c -0.551784 0 -1 -0.448216 -1 -1"/><path fill="#94a4a2" fill-rule="nonzero" stroke="#94a4a2" stroke-width="0.7" stroke-linecap="butt" stroke-linejoin="miter" stroke-miterlimit="4" transform="translate(158.2125378 65.166856515)" d="M 0 0m 0 1c 0 -0.551784 0.448216 -1 1 -1c 0.551784 0 1 0.448216 1 1c 0 0.551784 -0.448216 1 -1 1c -0.551784 0 -1 -0.448216 -1 -1"/><path fill="#94a4a2" fill-rule="nonzero" stroke="#94a4a2" stroke-width="0.7" stroke-linecap="butt" stroke-linejoin="miter" stroke-miterlimit="4" transform="translate(162.222265902 59.82055238)" d="M 0 0m 0 1c 0 -0.551784 0.448216 -1 1 -1c 0.551784 0 1 0.448216 1 1c 0 0.551784 -0.448216 1 -1 1c -0.551784 0 -1 -0.448216 -1 -1"/><path fill="#94a4a2" fill-rule="nonzero" stroke="#94a4a2" stroke-width="0.7" stroke-linecap="butt" stroke-linejoin="miter" stroke-miterlimit="4" transform="translate(166.231994003 54.474248245)" d="M 0 0m 0 1c 0 -0.551784 0.448216 -1 1 -1c 0.551784 0 1 0.448216 1 1c 0 0.551784 -0.448216 1 -1 1c -0.551784 0 -1 -0.448216 -1 -1"/><path fill="#94a4a2" fill-rule="nonzero" stroke="#94a4a2" stroke-width="0.7" stroke-linecap="butt" stroke-linejoin="miter" stroke-miterlimit="4" transform="translate(170.241722105 49.12794411)" d="M 0 0m 0 1c 0 -0.551784 0.448216 -1 1 -1c 0.551784 0 1 0.448216 1 1c 0 0.551784 -0.448216 1 -1 1c -0.551784 0 -1 -0.448216 -1 -1"/><path fill="#94a4a2" fill-rule="nonzero" stroke="#94a4a2" stroke-width="0.7" stroke-linecap="butt" stroke-linejoin="miter" stroke-miterlimit="4" transform="translate(174.251450206 43.781639974)" d="M 0 0m 0 1c 0 -0.551784 0.448216 -1 1 -1c 0.551784 0 1 0.448216 1 1c 0 0.551784 -0.448216 1 -1 1c -0.551784 0 -1 -0.448216 -1 -1"/><path fill="#94a4a2" fill-rule="nonzero" stroke="#94a4a2" stroke-width="0.7" stroke-linecap="butt" stroke-linejoin="miter" stroke-miterlimit="4" transform="translate(178.261178307 38.435335839)" d="M 0 0m 0 1c 0 -0.551784 0.448216 -1 1 -1c 0.551784 0 1 0.448216 1 1c 0 0.551784 -0.448216 1 -1 1c -0.551784 0 -1 -0.448216 -1 -1"/><path fill="#94a4a2" fill-rule="nonzero" stroke="#94a4a2" stroke-width="0.7" stroke-linecap="butt" stroke-linejoin="miter" stroke-miterlimit="4" transform="translate(182.270906409 33.089031704)" d="M 0 0m 0 1c 0 -0.551784 0.448216 -1 1 -1c 0.551784 0 1 0.448216 1 1c 0 0.551784 -0.448216 1 -1 1c -0.551784 0 -1 -0.448216 -1 -1"/><path fill="#94a4a2" fill-rule="nonzero" stroke="#94a4a2" stroke-width="0.7" stroke-linecap="butt" stroke-linejoin="miter" stroke-miterlimit="4" transform="translate(186.28063451 27.742727569)" d="M 0 0m 0 1c 0 -0.551784 0.448216 -1 1 -1c 0.551784 0 1 0.448216 1 1c 0 0.551784 -0.448216 1 -1 1c -0.551784 0 -1 -0.448216 -1 -1"/><path fill="#94a4a2" fill-rule="nonzero" stroke="#94a4a2" stroke-width="0.7" stroke-linecap="butt" stroke-linejoin="miter" stroke-miterlimit="4" transform="translate(190.290362612 22.396423434)" d="M 0 0m 0 1c 0 -0.551784 0.448216 -1 1 -1c 0.551784 0 1 0.448216 1 1c 0 0.551784 -0.448216 1 -1 1c -0.551784 0 -1 -0.448216 -1 -1"/><path fill="#94a4a2" fill-rule="nonzero" stroke="#94a4a2" stroke-width="0.7" stroke-linecap="butt" stroke-linejoin="miter" stroke-miterlimit="4" transform="translate(194.300090713 17.050119298)" d="M 0 0m 0 1c 0 -0.551784 0.448216 -1 1 -1c 0.551784 0 1 0.448216 1 1c 0 0.551784 -0.448216 1 -1 1c -0.551784 0 -1 -0.448216 -1 -1"/><path fill="#94a4a2" fill-rule="nonzero" stroke="#94a4a2" stroke-width="0.7" stroke-linecap="butt" stroke-linejoin="miter" stroke-miterlimit="4" transform="translate(198.309818814 11.703815163)" d="M 0 0m 0 1c 0 -0.551784 0.448216 -1 1 -1c 0.551784 0 1 0.448216 1 1c 0 0.551784 -0.448216 1 -1 1c -0.551784 0 -1 -0.448216 -1 -1"/></g><g clip-path="url(#cF5A82E6F9662B2B20E7875B7FEF25729)"><path fill="none" stroke="#3f90da" stroke-width="0.7" stroke-linecap="butt" stroke-linejoin="miter" stroke-miterlimit="4" d="M 0 0m 89.710584043 187.795275591l 1.518900672 -1.308524443l 2.450863449 -2.270698421l 3.234087398 -3.37866795l 3.764856296 -4.618299045l 3.907634391 -5.84544876l 3.751327038 -6.860358268l 3.540038715 -7.578483466l 3.399522286 -8.020093765l 3.369535422 -8.234191397l 3.437484611 -8.271559634l 3.569639014 -8.177030813l 3.730043323 -7.989297276l 3.889528224 -7.741665245l 4.028696807 -7.46212604l 4.137582153 -7.173069256l 4.213684075 -6.891212724l 4.259507739 -6.628007847l 4.280297043 -6.390451399l 4.282294714 -6.182082647l 4.271595043 -6.003952683l 4.253504146 -5.855435643l 4.232268133 -5.734837584l 4.211033997 -5.639815685l 4.191937523 -5.567645921l 4.176245987 -5.515381446l 4.164511346 -5.479937728l 4.156709592 -5.458131383l 4.152354866 -5.446691524l 4.150584622 -5.442256338"/><path fill="#3f90da" fill-rule="nonzero" stroke="#3f90da" stroke-width="0.7" stroke-linecap="butt" stroke-linejoin="miter" stroke-miterlimit="4" transform="translate(88.710584043 186.795275591)" d="M 0 0m 0 1c 0 -0.551784 0.448216 -1 1 -1c 0.551784 0 1 0.448216 1 1c 0 0.551784 -0.448216 1 -1 1c -0.551784 0 -1 -0.448216 -1 -1"/><path fill="#3f90da" fill-rule="nonzero" stroke="#3f90da" stroke-width="0.7" stroke-linecap="butt" stroke-linejoin="miter" stroke-miterlimit="4" transform="translate(90.229484715 185.486751147)" d="M 0 0m 0 1c 0 -0.551784 0.448216 -1 1 -1c 0.551784 0 1 0.448216 1 1c 0 0.551784 -0.448216 1 -1 1c -0.551784 0 -1 -0.448216 -1 -1"/><path fill="#3f90da" fill-rule="nonzero" stroke="#3f90da" stroke-width="0.7" stroke-linecap="butt" stroke-linejoin="miter" stroke-miterlimit="4" transform="translate(92.680348164 183.216052726)" d="M 0 0m 0 1c 0 -0.551784 0.448216 -1 1 -1c 0.551784 0 1 0.448216 1 1c 0 0.551784 -0.448216 1 -1 1c -0.551784 0 -1 -0.448216 -1 -1"/><path fill="#3f90da" fill-rule="nonzero" stroke="#3f90da" stroke-width="0.7" stroke-linecap="butt" stroke-linejoin="miter" stroke-miterlimit="4" transform="translate(95.914435561 179.837384777)" d="M 0 0m 0 1c 0 -0.551784 0.448216 -1 1 -1c 0.551784 0 1 0.448216 1 1c 0 0.551784 -0.448216 1 -1 1c -0.551784 0 -1 -0.448216 -1 -1"/><path fill="#3f90da" fill-rule="nonzero" stroke="#3f90da" stroke-width="0.7" stroke-linecap="butt" stroke-linejoin="miter" stroke-miterlimit="4" transform="translate(99.679291857 175.219085731)" d="M 0 0m 0 1c 0 -0.551784 0.448216 -1 1 -1c 0.551784 0 1 0.448216 1 1c 0 0.551784 -0.448216 1 -1 1c -0.551784 0 -1 -0.448216 -1 -1"/><path fill="#3f90da" fill-rule="nonzero" stroke="#3f90da" stroke-width="0.7" stroke-linecap="butt" stroke-linejoin="miter" stroke-miterlimit="4" transform="translate(103.586926248 169.373636971)" d="M 0 0m 0 1c 0 -0.551784 0.448216 -1 1 -1c 0.551784 0 1 0.448216 1 1c 0 0.551784 -0.448216 1 -1 1c -0.551784 0 -1 -0.448216 -1 -1"/><path fill="#3f90da" fill-rule="nonzero" stroke="#3f90da" stroke-width="0.7" stroke-linecap="butt" stroke-linejoin="miter" stroke-miterlimit="4" transform="translate(107.338253286 162.513278704)" d="M 0 0m 0 1c 0 -0.551784 0.448216 -1 1 -1c 0.551784 0 1 0.448216 1 1c 0 0.551784 -0.448216 1 -1 1c -0.551784 0 -1 -0.448216 -1 -1"/><path fill="#3f90da" fill-rule="nonzero" stroke="#3f90da" stroke-width="0.7" stroke-linecap="butt" stroke-linejoin="miter" stroke-miterlimit="4" transform="translate(110.878292001 154.934795238)" d="M 0 0m 0 1c 0 -0.551784 0.448216 -1 1 -1c 0.551784 0 1 0.448216 1 1c 0 0.551784 -0.448216 1 -1 1c -0.551784 0 -1 -0.448216 -1 -1"/><path fill="#3f90da" fill-rule="nonzero" stroke="#3f90da" stroke-width="0.7" stroke-linecap="butt" stroke-linejoin="miter" stroke-miterlimit="4" transform="translate(114.277814287 146.914701474)" d="M 0 0m 0 1c 0 -0.551784 0.448216 -1 1 -1c 0.551784 0 1 0.448216 1 1c 0 0.551784 -0.448216 1 -1 1c -0.551784 0 -1 -0.448216 -1 -1"/><path fill="#3f90da" fill-rule="nonzero" stroke="#3f90da" stroke-width="0.7" stroke-linecap="butt" stroke-linejoin="miter" stroke-miterlimit="4" transform="translate(117.647349709 138.680510076)" d="M 0 0m 0 1c 0 -0.551784 0.448216 -1 1 -1c 0.551784 0 1 0.448216 1 1c 0 0.551784 -0.448216 1 -1 1c -0.551784 0 -1 -0.448216 -1 -1"/><path fill="#3f90da" fill-rule="nonzero" stroke="#3f90da" stroke-width="0.7" stroke-linecap="butt" stroke-linejoin="miter" stroke-miterlimit="4" transform="translate(121.08483432 130.408950443)" d="M 0 0m 0 1c 0 -0.551784 0.448216 -1 1 -1c 0.551784 0 1 0.448216 1 1c 0 0.551784 -0.448216 1 -1 1c -0.551784 0 -1 -0.448216 -1 -1"/><path fill="#3f90da" fill-rule="nonzero" stroke="#3f90da" stroke-width="0.7" stroke-linecap="butt" stroke-linejoin="miter" stroke-miterlimit="4" transform="translate(124.654473334 122.23191963)" d="M 0 0m 0 1c 0 -0.551784 0.448216 -1 1 -1c 0.551784 0 1 0.448216 1 1c 0 0.551784 -0.448216 1 -1 1c -0.551784 0 -1 -0.448216 -1 -1"/><path fill="#3f90da" fill-rule="nonzero" stroke="#3f90da" stroke-width="0.7" stroke-linecap="butt" stroke-linejoin="miter" stroke-miterlimit="4" transform="translate(128.384516657 114.242622354)" d="M 0 0m 0 1c 0 -0.551784 0.448216 -1 1 -1c 0.551784 0 1 0.448216 1 1c 0 0.551784 -0.448216 1 -1 1c -0.551784 0 -1 -0.448216 -1 -1"/><path fill="#3f90da" fill-rule="nonzero" stroke="#3f90da" stroke-width="0.7" stroke-linecap="butt" stroke-linejoin="miter" stroke-miterlimit="4" transform="translate(132.27404488 106.500957109)" d="M 0 0m 0 1c 0 -0.551784 0.448216 -1 1 -1c 0.551784 0 1 0.448216 1 1c 0 0.551784 -0.448216 1 -1 1c -0.551784 0 -1 -0.448216 -1 -1"/><path fill="#3f90da" fill-rule="nonzero" stroke="#3f90da" stroke-width="0.7" stroke-linecap="butt" stroke-linejoin="miter" stroke-miterlimit="4" transform="translate(136.302741687 99.038831068)" d="M 0 0m 0 1c 0 -0.551784 0.448216 -1 1 -1c 0.551784 0 1 0.448216 1 1c 0 0.551784 -0.448216 1 -1 1c -0.551784 0 -1 -0.448216 -1 -1"/><path fill="#3f90da" fill-rule="nonzero" stroke="#3f90da" stroke-width="0.7" stroke-linecap="butt" stroke-linejoin="miter" stroke-miterlimit="4" transform="translate(140.440323841 91.865761812)" d="M 0 0m 0 1c 0 -0.551784 0.448216 -1 1 -1c 0.551784 0 1 0.448216 1 1c 0 0.551784 -0.448216 1 -1 1c -0.551784 0 -1 -0.448216 -1 -1"/><path fill="#3f90da" fill-rule="nonzero" stroke="#3f90da" stroke-width="0.7" stroke-linecap="butt" stroke-linejoin="miter" stroke-miterlimit="4" transform="translate(144.654007916 84.974549088)" d="M 0 0m 0 1c 0 -0.551784 0.448216 -1 1 -1c 0.551784 0 1 0.448216 1 1c 0 0.551784 -0.448216 1 -1 1c -0.551784 0 -1 -0.448216 -1 -1"/><path fill="#3f90da" fill-rule="nonzero" stroke="#3f90da" stroke-width="0.7" stroke-linecap="butt" stroke-linejoin="miter" stroke-miterlimit="4" transform="translate(148.913515655 78.346541241)" d="M 0 0m 0 1c 0 -0.551784 0.448216 -1 1 -1c 0.551784 0 1 0.448216 1 1c 0 0.551784 -0.448216 1 -1 1c -0.551784 0 -1 -0.448216 -1 -1"/><path fill="#3f90da" fill-rule="nonzero" stroke="#3f90da" stroke-width="0.7" stroke-linecap="butt" stroke-linejoin="miter" stroke-miterlimit="4" transform="translate(153.193812698 71.956089842)" d="M 0 0m 0 1c 0 -0.551784 0.448216 -1 1 -1c 0.551784 0 1 0.448216 1 1c 0 0.551784 -0.448216 1 -1 1c -0.551784 0 -1 -0.448216 -1 -1"/><path fill="#3f90da" fill-rule="nonzero" stroke="#3f90da" stroke-width="0.7" stroke-linecap="butt" stroke-linejoin="miter" stroke-miterlimit="4" transform="translate(157.476107412 65.774007196)" d="M 0 0m 0 1c 0 -0.551784 0.448216 -1 1 -1c 0.551784 0 1 0.448216 1 1c 0 0.551784 -0.448216 1 -1 1c -0.551784 0 -1 -0.448216 -1 -1"/><path fill="#3f90da" fill-rule="nonzero" stroke="#3f90da" stroke-width="0.7" stroke-linecap="butt" stroke-linejoin="miter" stroke-miterlimit="4" transform="translate(161.747702455 59.770054513)" d="M 0 0m 0 1c 0 -0.551784 0.448216 -1 1 -1c 0.551784 0 1 0.448216 1 1c 0 0.551784 -0.448216 1 -1 1c -0.551784 0 -1 -0.448216 -1 -1"/><path fill="#3f90da" fill-rule="nonzero" stroke="#3f90da" stroke-width="0.7" stroke-linecap="butt" stroke-linejoin="miter" stroke-miterlimit="4" transform="translate(166.001206601 53.91461887)" d="M 0 0m 0 1c 0 -0.551784 0.448216 -1 1 -1c 0.551784 0 1 0.448216 1 1c 0 0.551784 -0.448216 1 -1 1c -0.551784 0 -1 -0.448216 -1 -1"/><path fill="#3f90da" fill-rule="nonzero" stroke="#3f90da" stroke-width="0.7" stroke-linecap="butt" stroke-linejoin="miter" stroke-miterlimit="4" transform="translate(170.233474734 48.179781285)" d="M 0 0m 0 1c 0 -0.551784 0.448216 -1 1 -1c 0.551784 0 1 0.448216 1 1c 0 0.551784 -0.448216 1 -1 1c -0.551784 0 -1 -0.448216 -1 -1"/><path fill="#3f90da" fill-rule="nonzero" stroke="#3f90da" stroke-width="0.7" stroke-linecap="butt" stroke-linejoin="miter" stroke-miterlimit="4" transform="translate(174.444508731 42.5399656)" d="M 0 0m 0 1c 0 -0.551784 0.448216 -1 1 -1c 0.551784 0 1 0.448216 1 1c 0 0.551784 -0.448216 1 -1 1c -0.551784 0 -1 -0.448216 -1 -1"/><path fill="#3f90da" fill-rule="nonzero" stroke="#3f90da" stroke-width="0.7" stroke-linecap="butt" stroke-linejoin="miter" stroke-miterlimit="4" transform="translate(178.636446254 36.97231968)" d="M 0 0m 0 1c 0 -0.551784 0.448216 -1 1 -1c 0.551784 0 1 0.448216 1 1c 0 0.551784 -0.448216 1 -1 1c -0.551784 0 -1 -0.448216 -1 -1"/><path fill="#3f90da" fill-rule="nonzero" stroke="#3f90da" stroke-width="0.7" stroke-linecap="butt" stroke-linejoin="miter" stroke-miterlimit="4" transform="translate(182.812692241 31.456938233)" d="M 0 0m 0 1c 0 -0.551784 0.448216 -1 1 -1c 0.551784 0 1 0.448216 1 1c 0 0.551784 -0.448216 1 -1 1c -0.551784 0 -1 -0.448216 -1 -1"/><path fill="#3f90da" fill-rule="nonzero" stroke="#3f90da" stroke-width="0.7" stroke-linecap="butt" stroke-linejoin="miter" stroke-miterlimit="4" transform="translate(186.977203587 25.977000505)" d="M 0 0m 0 1c 0 -0.551784 0.448216 -1 1 -1c 0.551784 0 1 0.448216 1 1c 0 0.551784 -0.448216 1 -1 1c -0.551784 0 -1 -0.448216 -1 -1"/><path fill="#3f90da" fill-rule="nonzero" stroke="#3f90da" stroke-width="0.7" stroke-linecap="butt" stroke-linejoin="miter" stroke-miterlimit="4" transform="translate(191.133913179 20.518869122)" d="M 0 0m 0 1c 0 -0.551784 0.448216 -1 1 -1c 0.551784 0 1 0.448216 1 1c 0 0.551784 -0.448216 1 -1 1c -0.551784 0 -1 -0.448216 -1 -1"/><path fill="#3f90da" fill-rule="nonzero" stroke="#3f90da" stroke-width="0.7" stroke-linecap="butt" stroke-linejoin="miter" stroke-miterlimit="4" transform="translate(195.286268045 15.072177598)" d="M 0 0m 0 1c 0 -0.551784 0.448216 -1 1 -1c 0.551784 0 1 0.448216 1 1c 0 0.551784 -0.448216 1 -1 1c -0.551784 0 -1 -0.448216 -1 -1"/><path fill="#3f90da" fill-rule="nonzero" stroke="#3f90da" stroke-width="0.7" stroke-linecap="butt" stroke-linejoin="miter" stroke-miterlimit="4" transform="translate(199.436852667 9.62992126)" d="M 0 0m 0 1c 0 -0.551784 0.448216 -1 1 -1c 0.551784 0 1 0.448216 1 1c 0 0.551784 -0.448216 1 -1 1c -0.551784 0 -1 -0.448216 -1 -1"/></g><g clip-path="url(#cF5A82E6F9662B2B20E7875B7FEF25729)"><path fill="none" stroke="#ffa90e" stroke-width="0.7" stroke-linecap="butt" stroke-linejoin="miter" stroke-miterlimit="4" d="M 0 0m 89.710584043 187.795275591l 1.518900671 -1.308524443l 2.450863448 -2.27069842l 3.234087397 -3.378667949l 3.764856301 -4.61829904l 3.907634665 -5.845448364l 3.751327784 -6.860356584l 3.540039599 -7.578480861l 3.399523103 -8.020091663l 3.369536147 -8.234190474l 3.437485224 -8.271559333l 3.569639518 -8.177030405l 3.730043768 -7.989296549l 3.889528667 -7.741664353l 4.028697269 -7.46212518l 4.137582622 -7.173068531l 4.213684526 -6.89121215l 4.259508156 -6.628007401l 4.280297419 -6.390451047l 4.28229505 -6.182082361l 4.271595346 -6.003952441l 4.253504423 -5.85543543l 4.23226839 -5.734837389l 4.21103424 -5.639815501l 4.191937757 -5.567645744l 4.176246215 -5.515381274l 4.164511569 -5.479937558l 4.156709813 -5.458131215l 4.152355086 -5.446691356l 4.150584841 -5.442256171"/><path fill="#ffa90e" fill-rule="nonzero" stroke="#ffa90e" stroke-width="0.7" stroke-linecap="butt" stroke-linejoin="miter" stroke-miterlimit="4" transform="translate(88.710584043 186.795275591)" d="M 0 0m 0 1c 0 -0.551784 0.448216 -1 1 -1c 0.551784 0 1 0.448216 1 1c 0 0.551784 -0.448216 1 -1 1c -0.551784 0 -1 -0.448216 -1 -1"/><path fill="#ffa90e" fill-rule="nonzero" stroke="#ffa90e" stroke-width="0.7" stroke-linecap="butt" stroke-linejoin="miter" stroke-miterlimit="4" transform="translate(90.229484715 185.486751147)" d="M 0 0m 0 1c 0 -0.551784 0.448216 -1 1 -1c 0.551784 0 1 0.448216 1 1c 0 0.551784 -0.448216 1 -1 1c -0.551784 0 -1 -0.448216 -1 -1"/><path fill="#ffa90e" fill-rule="nonzero" stroke="#ffa90e" stroke-width="0.7" stroke-linecap="butt" stroke-linejoin="miter" stroke-miterlimit="4" transform="translate(92.680348163 183.216052727)" d="M 0 0m 0 1c 0 -0.551784 0.448216 -1 1 -1c 0.551784 0 1 0.448216 1 1c 0 0.551784 -0.448216 1 -1 1c -0.551784 0 -1 -0.448216 -1 -1"/><path fill="#ffa90e" fill-rule="nonzero" stroke="#ffa90e" stroke-width="0.7" stroke-linecap="butt" stroke-linejoin="miter" stroke-miterlimit="4" transform="translate(95.91443556 179.837384778)" d="M 0 0m 0 1c 0 -0.551784 0.448216 -1 1 -1c 0.551784 0 1 0.448216 1 1c 0 0.551784 -0.448216 1 -1 1c -0.551784 0 -1 -0.448216 -1 -1"/><path fill="#ffa90e" fill-rule="nonzero" stroke="#ffa90e" stroke-width="0.7" stroke-linecap="butt" stroke-linejoin="miter" stroke-miterlimit="4" transform="translate(99.679291861 175.219085738)" d="M 0 0m 0 1c 0 -0.551784 0.448216 -1 1 -1c 0.551784 0 1 0.448216 1 1c 0 0.551784 -0.448216 1 -1 1c -0.551784 0 -1 -0.448216 -1 -1"/><path fill="#ffa90e" fill-rule="nonzero" stroke="#ffa90e" stroke-width="0.7" stroke-linecap="butt" stroke-linejoin="miter" stroke-miterlimit="4" transform="translate(103.586926526 169.373637374)" d="M 0 0m 0 1c 0 -0.551784 0.448216 -1 1 -1c 0.551784 0 1 0.448216 1 1c 0 0.551784 -0.448216 1 -1 1c -0.551784 0 -1 -0.448216 -1 -1"/><path fill="#ffa90e" fill-rule="nonzero" stroke="#ffa90e" stroke-width="0.7" stroke-linecap="butt" stroke-linejoin="miter" stroke-miterlimit="4" transform="translate(107.33825431 162.51328079)" d="M 0 0m 0 1c 0 -0.551784 0.448216 -1 1 -1c 0.551784 0 1 0.448216 1 1c 0 0.551784 -0.448216 1 -1 1c -0.551784 0 -1 -0.448216 -1 -1"/><path fill="#ffa90e" fill-rule="nonzero" stroke="#ffa90e" stroke-width="0.7" stroke-linecap="butt" stroke-linejoin="miter" stroke-miterlimit="4" transform="translate(110.878293909 154.934799929)" d="M 0 0m 0 1c 0 -0.551784 0.448216 -1 1 -1c 0.551784 0 1 0.448216 1 1c 0 0.551784 -0.448216 1 -1 1c -0.551784 0 -1 -0.448216 -1 -1"/><path fill="#ffa90e" fill-rule="nonzero" stroke="#ffa90e" stroke-width="0.7" stroke-linecap="butt" stroke-linejoin="miter" stroke-miterlimit="4" transform="translate(114.277817012 146.914708266)" d="M 0 0m 0 1c 0 -0.551784 0.448216 -1 1 -1c 0.551784 0 1 0.448216 1 1c 0 0.551784 -0.448216 1 -1 1c -0.551784 0 -1 -0.448216 -1 -1"/><path fill="#ffa90e" fill-rule="nonzero" stroke="#ffa90e" stroke-width="0.7" stroke-linecap="butt" stroke-linejoin="miter" stroke-miterlimit="4" transform="translate(117.647353159 138.680517792)" d="M 0 0m 0 1c 0 -0.551784 0.448216 -1 1 -1c 0.551784 0 1 0.448216 1 1c 0 0.551784 -0.448216 1 -1 1c -0.551784 0 -1 -0.448216 -1 -1"/><path fill="#ffa90e" fill-rule="nonzero" stroke="#ffa90e" stroke-width="0.7" stroke-linecap="butt" stroke-linejoin="miter" stroke-miterlimit="4" transform="translate(121.084838383 130.408958459)" d="M 0 0m 0 1c 0 -0.551784 0.448216 -1 1 -1c 0.551784 0 1 0.448216 1 1c 0 0.551784 -0.448216 1 -1 1c -0.551784 0 -1 -0.448216 -1 -1"/><path fill="#ffa90e" fill-rule="nonzero" stroke="#ffa90e" stroke-width="0.7" stroke-linecap="butt" stroke-linejoin="miter" stroke-miterlimit="4" transform="translate(124.654477901 122.231928054)" d="M 0 0m 0 1c 0 -0.551784 0.448216 -1 1 -1c 0.551784 0 1 0.448216 1 1c 0 0.551784 -0.448216 1 -1 1c -0.551784 0 -1 -0.448216 -1 -1"/><path fill="#ffa90e" fill-rule="nonzero" stroke="#ffa90e" stroke-width="0.7" stroke-linecap="butt" stroke-linejoin="miter" stroke-miterlimit="4" transform="translate(128.384521669 114.242631505)" d="M 0 0m 0 1c 0 -0.551784 0.448216 -1 1 -1c 0.551784 0 1 0.448216 1 1c 0 0.551784 -0.448216 1 -1 1c -0.551784 0 -1 -0.448216 -1 -1"/><path fill="#ffa90e" fill-rule="nonzero" stroke="#ffa90e" stroke-width="0.7" stroke-linecap="butt" stroke-linejoin="miter" stroke-miterlimit="4" transform="translate(132.274050336 106.500967152)" d="M 0 0m 0 1c 0 -0.551784 0.448216 -1 1 -1c 0.551784 0 1 0.448216 1 1c 0 0.551784 -0.448216 1 -1 1c -0.551784 0 -1 -0.448216 -1 -1"/><path fill="#ffa90e" fill-rule="nonzero" stroke="#ffa90e" stroke-width="0.7" stroke-linecap="butt" stroke-linejoin="miter" stroke-miterlimit="4" transform="translate(136.302747605 99.038841972)" d="M 0 0m 0 1c 0 -0.551784 0.448216 -1 1 -1c 0.551784 0 1 0.448216 1 1c 0 0.551784 -0.448216 1 -1 1c -0.551784 0 -1 -0.448216 -1 -1"/><path fill="#ffa90e" fill-rule="nonzero" stroke="#ffa90e" stroke-width="0.7" stroke-linecap="butt" stroke-linejoin="miter" stroke-miterlimit="4" transform="translate(140.440330226 91.865773441)" d="M 0 0m 0 1c 0 -0.551784 0.448216 -1 1 -1c 0.551784 0 1 0.448216 1 1c 0 0.551784 -0.448216 1 -1 1c -0.551784 0 -1 -0.448216 -1 -1"/><path fill="#ffa90e" fill-rule="nonzero" stroke="#ffa90e" stroke-width="0.7" stroke-linecap="butt" stroke-linejoin="miter" stroke-miterlimit="4" transform="translate(144.654014753 84.974561292)" d="M 0 0m 0 1c 0 -0.551784 0.448216 -1 1 -1c 0.551784 0 1 0.448216 1 1c 0 0.551784 -0.448216 1 -1 1c -0.551784 0 -1 -0.448216 -1 -1"/><path fill="#ffa90e" fill-rule="nonzero" stroke="#ffa90e" stroke-width="0.7" stroke-linecap="butt" stroke-linejoin="miter" stroke-miterlimit="4" transform="translate(148.913522909 78.34655389)" d="M 0 0m 0 1c 0 -0.551784 0.448216 -1 1 -1c 0.551784 0 1 0.448216 1 1c 0 0.551784 -0.448216 1 -1 1c -0.551784 0 -1 -0.448216 -1 -1"/><path fill="#ffa90e" fill-rule="nonzero" stroke="#ffa90e" stroke-width="0.7" stroke-linecap="butt" stroke-linejoin="miter" stroke-miterlimit="4" transform="translate(153.193820327 71.956102843)" d="M 0 0m 0 1c 0 -0.551784 0.448216 -1 1 -1c 0.551784 0 1 0.448216 1 1c 0 0.551784 -0.448216 1 -1 1c -0.551784 0 -1 -0.448216 -1 -1"/><path fill="#ffa90e" fill-rule="nonzero" stroke="#ffa90e" stroke-width="0.7" stroke-linecap="butt" stroke-linejoin="miter" stroke-miterlimit="4" transform="translate(157.476115377 65.774020482)" d="M 0 0m 0 1c 0 -0.551784 0.448216 -1 1 -1c 0.551784 0 1 0.448216 1 1c 0 0.551784 -0.448216 1 -1 1c -0.551784 0 -1 -0.448216 -1 -1"/><path fill="#ffa90e" fill-rule="nonzero" stroke="#ffa90e" stroke-width="0.7" stroke-linecap="butt" stroke-linejoin="miter" stroke-miterlimit="4" transform="translate(161.747710723 59.770068041)" d="M 0 0m 0 1c 0 -0.551784 0.448216 -1 1 -1c 0.551784 0 1 0.448216 1 1c 0 0.551784 -0.448216 1 -1 1c -0.551784 0 -1 -0.448216 -1 -1"/><path fill="#ffa90e" fill-rule="nonzero" stroke="#ffa90e" stroke-width="0.7" stroke-linecap="butt" stroke-linejoin="miter" stroke-miterlimit="4" transform="translate(166.001215146 53.914632611)" d="M 0 0m 0 1c 0 -0.551784 0.448216 -1 1 -1c 0.551784 0 1 0.448216 1 1c 0 0.551784 -0.448216 1 -1 1c -0.551784 0 -1 -0.448216 -1 -1"/><path fill="#ffa90e" fill-rule="nonzero" stroke="#ffa90e" stroke-width="0.7" stroke-linecap="butt" stroke-linejoin="miter" stroke-miterlimit="4" transform="translate(170.233483536 48.179795221)" d="M 0 0m 0 1c 0 -0.551784 0.448216 -1 1 -1c 0.551784 0 1 0.448216 1 1c 0 0.551784 -0.448216 1 -1 1c -0.551784 0 -1 -0.448216 -1 -1"/><path fill="#ffa90e" fill-rule="nonzero" stroke="#ffa90e" stroke-width="0.7" stroke-linecap="butt" stroke-linejoin="miter" stroke-miterlimit="4" transform="translate(174.444517775 42.53997972)" d="M 0 0m 0 1c 0 -0.551784 0.448216 -1 1 -1c 0.551784 0 1 0.448216 1 1c 0 0.551784 -0.448216 1 -1 1c -0.551784 0 -1 -0.448216 -1 -1"/><path fill="#ffa90e" fill-rule="nonzero" stroke="#ffa90e" stroke-width="0.7" stroke-linecap="butt" stroke-linejoin="miter" stroke-miterlimit="4" transform="translate(178.636455532 36.972333976)" d="M 0 0m 0 1c 0 -0.551784 0.448216 -1 1 -1c 0.551784 0 1 0.448216 1 1c 0 0.551784 -0.448216 1 -1 1c -0.551784 0 -1 -0.448216 -1 -1"/><path fill="#ffa90e" fill-rule="nonzero" stroke="#ffa90e" stroke-width="0.7" stroke-linecap="butt" stroke-linejoin="miter" stroke-miterlimit="4" transform="translate(182.812701747 31.456952702)" d="M 0 0m 0 1c 0 -0.551784 0.448216 -1 1 -1c 0.551784 0 1 0.448216 1 1c 0 0.551784 -0.448216 1 -1 1c -0.551784 0 -1 -0.448216 -1 -1"/><path fill="#ffa90e" fill-rule="nonzero" stroke="#ffa90e" stroke-width="0.7" stroke-linecap="butt" stroke-linejoin="miter" stroke-miterlimit="4" transform="translate(186.977213316 25.977015143)" d="M 0 0m 0 1c 0 -0.551784 0.448216 -1 1 -1c 0.551784 0 1 0.448216 1 1c 0 0.551784 -0.448216 1 -1 1c -0.551784 0 -1 -0.448216 -1 -1"/><path fill="#ffa90e" fill-rule="nonzero" stroke="#ffa90e" stroke-width="0.7" stroke-linecap="butt" stroke-linejoin="miter" stroke-miterlimit="4" transform="translate(191.133923128 20.518883928)" d="M 0 0m 0 1c 0 -0.551784 0.448216 -1 1 -1c 0.551784 0 1 0.448216 1 1c 0 0.551784 -0.448216 1 -1 1c -0.551784 0 -1 -0.448216 -1 -1"/><path fill="#ffa90e" fill-rule="nonzero" stroke="#ffa90e" stroke-width="0.7" stroke-linecap="butt" stroke-linejoin="miter" stroke-miterlimit="4" transform="translate(195.286278214 15.072192572)" d="M 0 0m 0 1c 0 -0.551784 0.448216 -1 1 -1c 0.551784 0 1 0.448216 1 1c 0 0.551784 -0.448216 1 -1 1c -0.551784 0 -1 -0.448216 -1 -1"/><path fill="#ffa90e" fill-rule="nonzero" stroke="#ffa90e" stroke-width="0.7" stroke-linecap="butt" stroke-linejoin="miter" stroke-miterlimit="4" transform="translate(199.436863055 9.629936401)" d="M 0 0m 0 1c 0 -0.551784 0.448216 -1 1 -1c 0.551784 0 1 0.448216 1 1c 0 0.551784 -0.448216 1 -1 1c -0.551784 0 -1 -0.448216 -1 -1"/></g><g transform="translate(2 2)"><g><path fill="#ffffffcc" fill-rule="nonzero" d="M 0 0m 0 1.25c 0 -0.690355937 0.559644063 -1.25 1.25 -1.25h 78.914c 0.690355937 0 1.25 0.559644063 1.25 1.25v 39.2c 0 0.690355937 -0.559644063 1.25 -1.25 1.25h -78.914c -0.690355937 0 -1.25 -0.559644063 -1.25 -1.25Z "/><path fill="none" stroke="#aaaaaa" stroke-width="0.5" stroke-linecap="butt" stroke-linejoin="miter" stroke-miterlimit="4" d="M 0 0m 1.25 0h 78.914c 0.690355937 0 1.25 0.559644063 1.25 1.25v 39.2c 0 0.690355937 -0.559644063 1.25 -1.25 1.25h -78.914c -0.690355937 0 -1.25 -0.559644063 -1.25 -1.25v -39.2c 0 -0.690355937 0.559644063 -1.25 1.25 -1.25"/><g transform="translate(5.3 5.3)"><path fill="none" stroke="#94a4a2" stroke-width="0.7" stroke-linecap="butt" stroke-linejoin="miter" stroke-miterlimit="4" d="M 0 0m 0 3.85h 22"/><path fill="#94a4a2" fill-rule="nonzero" stroke="#94a4a2" stroke-width="0.7" stroke-linecap="butt" stroke-linejoin="miter" stroke-miterlimit="4" transform="translate(10 2.85)" d="M 0 0m 0 1c 0 -0.551784 0.448216 -1 1 -1c 0.551784 0 1 0.448216 1 1c 0 0.551784 -0.448216 1 -1 1c -0.551784 0 -1 -0.448216 -1 -1"/></g><g transform="matrix(1 0 0 -1 31.3 12.769)"><use xlink:href="#g6553513FE64203BDE37F7BF6C55D1886" x="0" y="0" fill="#000000" fill-rule="nonzero"/><use xlink:href="#g9787446D80B11CDE2529516BF2D1ACCA" x="6.028" y="0" fill="#000000" fill-rule="nonzero"/><use xlink:href="#gD91D82170ED5F219BEA1B53E81DC19AF" x="11.055" y="0" fill="#000000" fill-rule="nonzero"/><use xlink:href="#gEEC20B8710F33D8A6862F31BD530D033" x="15.147" y="0" fill="#000000" fill-rule="nonzero"/><use xlink:href="#gBFE09989B12480F1B7796D69E0D7287C" x="20.647" y="0" fill="#000000" fill-rule="nonzero"/><use xlink:href="#gB38329E71763B8BD4CF776D24C5AFFE1" x="25.564" y="0" fill="#000000" fill-rule="nonzero"/></g><g transform="translate(5.3 17)"><path fill="none" stroke="#3f90da" stroke-width="0.7" stroke-linecap="butt" stroke-linejoin="miter" stroke-miterlimit="4" d="M 0 0m 0 3.85h 22"/><path fill="#3f90da" fill-rule="nonzero" stroke="#3f90da" stroke-width="0.7" stroke-linecap="butt" stroke-linejoin="miter" stroke-miterlimit="4" transform="translate(10 2.85)" d="M 0 0m 0 1c 0 -0.551784 0.448216 -1 1 -1c 0.551784 0 1 0.448216 1 1c 0 0.551784 -0.448216 1 -1 1c -0.551784 0 -1 -0.448216 -1 -1"/></g><g transform="matrix(1 0 0 -1 31.3 24.469)"><use xlink:href="#gD355BF4F81D64465081A1B40E1986DB4" x="0" y="0" fill="#000000" fill-rule="nonzero"/><use xlink:href="#g5E76F8DBE7C3C7A9A461E8EC1D70F6FB" x="5.335" y="0" fill="#000000" fill-rule="nonzero"/><use xlink:href="#g36F90904A4043C6A677E73471A30013F" x="10.879" y="0" fill="#000000" fill-rule="nonzero"/><use xlink:href="#g8FE23DF7094EE2D558758B421CB0DF33" x="13.783" y="0" fill="#000000" fill-rule="nonzero"/><use xlink:href="#gB38329E71763B8BD4CF776D24C5AFFE1" x="19.624" y="0" fill="#000000" fill-rule="nonzero"/><use xlink:href="#gDD50B131DFBA2C7EA73123CA4C98C33" x="23.1" y="0" fill="#000000" fill-rule="nonzero"/><use xlink:href="#g5E76F8DBE7C3C7A9A461E8EC1D70F6FB" x="26.081" y="0" fill="#000000" fill-rule="nonzero"/><use xlink:href="#gEB245AFE22C398BE296AC5F7AF6ADF12" x="31.625" y="0" fill="#000000" fill-rule="nonzero"/></g><g transform="translate(5.3 28.7)"><path fill="none" stroke="#ffa90e" stroke-width="0.7" stroke-linecap="butt" stroke-linejoin="miter" stroke-miterlimit="4" d="M 0 0m 0 3.85h 22"/><path fill="#ffa90e" fill-rule="nonzero" stroke="#ffa90e" stroke-width="0.7" stroke-linecap="butt" stroke-linejoin="miter" stroke-miterlimit="4" transform="translate(10 2.85)" d="M 0 0m 0 1c 0 -0.551784 0.448216 -1 1 -1c 0.551784 0 1 0.448216 1 1c 0 0.551784 -0.448216 1 -1 1c -0.551784 0 -1 -0.448216 -1 -1"/></g><g transform="matrix(1 0 0 -1 31.3 36.169)"><use xlink:href="#gD355BF4F81D64465081A1B40E1986DB4" x="0" y="0" fill="#000000" fill-rule="nonzero"/><use xlink:href="#gDD50B131DFBA2C7EA73123CA4C98C33" x="5.335" y="0" fill="#000000" fill-rule="nonzero"/><use xlink:href="#gF9510C9866DCA99AFC3FC8A8DB318BDC" x="8.316" y="0" fill="#000000" fill-rule="nonzero"/><use xlink:href="#g8FE23DF7094EE2D558758B421CB0DF33" x="17.006" y="0" fill="#000000" fill-rule="nonzero"/><use xlink:href="#g36F90904A4043C6A677E73471A30013F" x="22.847" y="0" fill="#000000" fill-rule="nonzero"/><use xlink:href="#g9787446D80B11CDE2529516BF2D1ACCA" x="25.751" y="0" fill="#000000" fill-rule="nonzero"/><use xlink:href="#gB38329E71763B8BD4CF776D24C5AFFE1" x="30.778" y="0" fill="#000000" fill-rule="nonzero"/><use xlink:href="#gBFE09989B12480F1B7796D69E0D7287C" x="34.254" y="0" fill="#000000" fill-rule="nonzero"/><use xlink:href="#g7FF42B92D9D80783DC2C1CC317042C56" x="39.248" y="0" fill="#000000" fill-rule="nonzero"/></g></g></g><g transform="translate(0 198.42519685)"><path fill="none" stroke="#000000" stroke-width="0.5" stroke-linecap="square" stroke-linejoin="miter" stroke-miterlimit="4" d="M 0 0h 283.464566929"/></g><g transform="translate(0 198.42519685)"><path fill="none" stroke="#000000" stroke-width="0.5" stroke-linecap="butt" stroke-linejoin="miter" stroke-miterlimit="4" transform="translate(16.198902184 -3)" d="M 0 0l 0 3"/><g transform="matrix(1 0 0 -1 4.890902184 13.013)"><use xlink:href="#gBAEDC586750ACF975F6148DC31DFF1FD" x="0" y="0" fill="#000000" fill-rule="nonzero"/></g><g transform="matrix(1 0 0 -1 13.448902184 13.013)"><use xlink:href="#gDB748D06F08588DAF9B3A003946E2790" x="0" y="0" fill="#000000" fill-rule="nonzero"/></g><g transform="matrix(1 0 0 -1 18.948902184 13.013)"><use xlink:href="#gFB3058E5B2D0C91C9614F682027746E3" x="0" y="0" fill="#000000" fill-rule="nonzero"/></g><g transform="matrix(1 0 0 -1 22.006902184 13.013)"><use xlink:href="#g42BC0E45FE1CA00809CACE3263ECCA83" x="0" y="0" fill="#000000" fill-rule="nonzero"/></g><path fill="none" stroke="#000000" stroke-width="0.5" stroke-linecap="butt" stroke-linejoin="miter" stroke-miterlimit="4" transform="translate(49.613303029 -3)" d="M 0 0l 0 3"/><g transform="matrix(1 0 0 -1 38.305303029 13.013)"><use xlink:href="#gBAEDC586750ACF975F6148DC31DFF1FD" x="0" y="0" fill="#000000" fill-rule="nonzero"/></g><g transform="matrix(1 0 0 -1 46.863303029 13.013)"><use xlink:href="#g42BC0E45FE1CA00809CACE3263ECCA83" x="0" y="0" fill="#000000" fill-rule="nonzero"/></g><g transform="matrix(1 0 0 -1 52.363303029 13.013)"><use xlink:href="#gFB3058E5B2D0C91C9614F682027746E3" x="0" y="0" fill="#000000" fill-rule="nonzero"/></g><g transform="matrix(1 0 0 -1 55.421303029 13.013)"><use xlink:href="#gD91386F46490ADA6717FBC30CA1A2EF" x="0" y="0" fill="#000000" fill-rule="nonzero"/></g><path fill="none" stroke="#000000" stroke-width="0.5" stroke-linecap="butt" stroke-linejoin="miter" stroke-miterlimit="4" transform="translate(83.027703874 -3)" d="M 0 0l 0 3"/><g transform="matrix(1 0 0 -1 75.998703874 13.013)"><use xlink:href="#g42BC0E45FE1CA00809CACE3263ECCA83" x="0" y="0" fill="#000000" fill-rule="nonzero"/></g><g transform="matrix(1 0 0 -1 81.498703874 13.013)"><use xlink:href="#gFB3058E5B2D0C91C9614F682027746E3" x="0" y="0" fill="#000000" fill-rule="nonzero"/></g><g transform="matrix(1 0 0 -1 84.556703874 13.013)"><use xlink:href="#g42BC0E45FE1CA00809CACE3263ECCA83" x="0" y="0" fill="#000000" fill-rule="nonzero"/></g><path fill="none" stroke="#000000" stroke-width="0.5" stroke-linecap="butt" stroke-linejoin="miter" stroke-miterlimit="4" transform="translate(116.442104719 -3)" d="M 0 0l 0 3"/><g transform="matrix(1 0 0 -1 109.413104719 13.013)"><use xlink:href="#g42BC0E45FE1CA00809CACE3263ECCA83" x="0" y="0" fill="#000000" fill-rule="nonzero"/></g><g transform="matrix(1 0 0 -1 114.913104719 13.013)"><use xlink:href="#gFB3058E5B2D0C91C9614F682027746E3" x="0" y="0" fill="#000000" fill-rule="nonzero"/></g><g transform="matrix(1 0 0 -1 117.971104719 13.013)"><use xlink:href="#gD91386F46490ADA6717FBC30CA1A2EF" x="0" y="0" fill="#000000" fill-rule="nonzero"/></g><path fill="none" stroke="#000000" stroke-width="0.5" stroke-linecap="butt" stroke-linejoin="miter" stroke-miterlimit="4" transform="translate(149.856505564 -3)" d="M 0 0l 0 3"/><g transform="matrix(1 0 0 -1 142.827505564 13.013)"><use xlink:href="#gDB748D06F08588DAF9B3A003946E2790" x="0" y="0" fill="#000000" fill-rule="nonzero"/></g><g transform="matrix(1 0 0 -1 148.327505564 13.013)"><use xlink:href="#gFB3058E5B2D0C91C9614F682027746E3" x="0" y="0" fill="#000000" fill-rule="nonzero"/></g><g transform="matrix(1 0 0 -1 151.385505564 13.013)"><use xlink:href="#g42BC0E45FE1CA00809CACE3263ECCA83" x="0" y="0" fill="#000000" fill-rule="nonzero"/></g><path fill="none" stroke="#000000" stroke-width="0.5" stroke-linecap="butt" stroke-linejoin="miter" stroke-miterlimit="4" transform="translate(183.270906409 -3)" d="M 0 0l 0 3"/><g transform="matrix(1 0 0 -1 176.241906409 13.013)"><use xlink:href="#gDB748D06F08588DAF9B3A003946E2790" x="0" y="0" fill="#000000" fill-rule="nonzero"/></g><g transform="matrix(1 0 0 -1 181.741906409 13.013)"><use xlink:href="#gFB3058E5B2D0C91C9614F682027746E3" x="0" y="0" fill="#000000" fill-rule="nonzero"/></g><g transform="matrix(1 0 0 -1 184.799906409 13.013)"><use xlink:href="#gD91386F46490ADA6717FBC30CA1A2EF" x="0" y="0" fill="#000000" fill-rule="nonzero"/></g><path fill="none" stroke="#000000" stroke-width="0.5" stroke-linecap="butt" stroke-linejoin="miter" stroke-miterlimit="4" transform="translate(216.685307254 -3)" d="M 0 0l 0 3"/><g transform="matrix(1 0 0 -1 209.656307254 13.013)"><use xlink:href="#g843A897272737C82E2FB72B0DF405E2" x="0" y="0" fill="#000000" fill-rule="nonzero"/></g><g transform="matrix(1 0 0 -1 215.156307254 13.013)"><use xlink:href="#gFB3058E5B2D0C91C9614F682027746E3" x="0" y="0" fill="#000000" fill-rule="nonzero"/></g><g transform="matrix(1 0 0 -1 218.214307254 13.013)"><use xlink:href="#g42BC0E45FE1CA00809CACE3263ECCA83" x="0" y="0" fill="#000000" fill-rule="nonzero"/></g><path fill="none" stroke="#000000" stroke-width="0.5" stroke-linecap="butt" stroke-linejoin="miter" stroke-miterlimit="4" transform="translate(250.099708099 -3)" d="M 0 0l 0 3"/><g transform="matrix(1 0 0 -1 243.070708099 13.013)"><use xlink:href="#g843A897272737C82E2FB72B0DF405E2" x="0" y="0" fill="#000000" fill-rule="nonzero"/></g><g transform="matrix(1 0 0 -1 248.570708099 13.013)"><use xlink:href="#gFB3058E5B2D0C91C9614F682027746E3" x="0" y="0" fill="#000000" fill-rule="nonzero"/></g><g transform="matrix(1 0 0 -1 251.628708099 13.013)"><use xlink:href="#gD91386F46490ADA6717FBC30CA1A2EF" x="0" y="0" fill="#000000" fill-rule="nonzero"/></g></g><g transform="translate(0 198.42519685)"><path fill="none" stroke="#000000" stroke-width="0.5" stroke-linecap="butt" stroke-linejoin="miter" stroke-miterlimit="4" transform="translate(2.833141846 -1.5)" d="M 0 0l 0 1.5"/><path fill="none" stroke="#000000" stroke-width="0.5" stroke-linecap="butt" stroke-linejoin="miter" stroke-miterlimit="4" transform="translate(9.516022015 -1.5)" d="M 0 0l 0 1.5"/><path fill="none" stroke="#000000" stroke-width="0.5" stroke-linecap="butt" stroke-linejoin="miter" stroke-miterlimit="4" transform="translate(22.881782353 -1.5)" d="M 0 0l 0 1.5"/><path fill="none" stroke="#000000" stroke-width="0.5" stroke-linecap="butt" stroke-linejoin="miter" stroke-miterlimit="4" transform="translate(29.564662522 -1.5)" d="M 0 0l 0 1.5"/><path fill="none" stroke="#000000" stroke-width="0.5" stroke-linecap="butt" stroke-linejoin="miter" stroke-miterlimit="4" transform="translate(36.247542691 -1.5)" d="M 0 0l 0 1.5"/><path fill="none" stroke="#000000" stroke-width="0.5" stroke-linecap="butt" stroke-linejoin="miter" stroke-miterlimit="4" transform="translate(42.93042286 -1.5)" d="M 0 0l 0 1.5"/><path fill="none" stroke="#000000" stroke-width="0.5" stroke-linecap="butt" stroke-linejoin="miter" stroke-miterlimit="4" transform="translate(56.296183198 -1.5)" d="M 0 0l 0 1.5"/><path fill="none" stroke="#000000" stroke-width="0.5" stroke-linecap="butt" stroke-linejoin="miter" stroke-miterlimit="4" transform="translate(62.979063367 -1.5)" d="M 0 0l 0 1.5"/><path fill="none" stroke="#000000" stroke-width="0.5" stroke-linecap="butt" stroke-linejoin="miter" stroke-miterlimit="4" transform="translate(69.661943536 -1.5)" d="M 0 0l 0 1.5"/><path fill="none" stroke="#000000" stroke-width="0.5" stroke-linecap="butt" stroke-linejoin="miter" stroke-miterlimit="4" transform="translate(76.344823705 -1.5)" d="M 0 0l 0 1.5"/><path fill="none" stroke="#000000" stroke-width="0.5" stroke-linecap="butt" stroke-linejoin="miter" stroke-miterlimit="4" transform="translate(89.710584043 -1.5)" d="M 0 0l 0 1.5"/><path fill="none" stroke="#000000" stroke-width="0.5" stroke-linecap="butt" stroke-linejoin="miter" stroke-miterlimit="4" transform="translate(96.393464212 -1.5)" d="M 0 0l 0 1.5"/><path fill="none" stroke="#000000" stroke-width="0.5" stroke-linecap="butt" stroke-linejoin="miter" stroke-miterlimit="4" transform="translate(103.076344381 -1.5)" d="M 0 0l 0 1.5"/><path fill="none" stroke="#000000" stroke-width="0.5" stroke-linecap="butt" stroke-linejoin="miter" stroke-miterlimit="4" transform="translate(109.75922455 -1.5)" d="M 0 0l 0 1.5"/><path fill="none" stroke="#000000" stroke-width="0.5" stroke-linecap="butt" stroke-linejoin="miter" stroke-miterlimit="4" transform="translate(123.124984888 -1.5)" d="M 0 0l 0 1.5"/><path fill="none" stroke="#000000" stroke-width="0.5" stroke-linecap="butt" stroke-linejoin="miter" stroke-miterlimit="4" transform="translate(129.807865057 -1.5)" d="M 0 0l 0 1.5"/><path fill="none" stroke="#000000" stroke-width="0.5" stroke-linecap="butt" stroke-linejoin="miter" stroke-miterlimit="4" transform="translate(136.490745226 -1.5)" d="M 0 0l 0 1.5"/><path fill="none" stroke="#000000" stroke-width="0.5" stroke-linecap="butt" stroke-linejoin="miter" stroke-miterlimit="4" transform="translate(143.173625395 -1.5)" d="M 0 0l 0 1.5"/><path fill="none" stroke="#000000" stroke-width="0.5" stroke-linecap="butt" stroke-linejoin="miter" stroke-miterlimit="4" transform="translate(156.539385733 -1.5)" d="M 0 0l 0 1.5"/><path fill="none" stroke="#000000" stroke-width="0.5" stroke-linecap="butt" stroke-linejoin="miter" stroke-miterlimit="4" transform="translate(163.222265902 -1.5)" d="M 0 0l 0 1.5"/><path fill="none" stroke="#000000" stroke-width="0.5" stroke-linecap="butt" stroke-linejoin="miter" stroke-miterlimit="4" transform="translate(169.905146071 -1.5)" d="M 0 0l 0 1.5"/><path fill="none" stroke="#000000" stroke-width="0.5" stroke-linecap="butt" stroke-linejoin="miter" stroke-miterlimit="4" transform="translate(176.58802624 -1.5)" d="M 0 0l 0 1.5"/><path fill="none" stroke="#000000" stroke-width="0.5" stroke-linecap="butt" stroke-linejoin="miter" stroke-miterlimit="4" transform="translate(189.953786578 -1.5)" d="M 0 0l 0 1.5"/><path fill="none" stroke="#000000" stroke-width="0.5" stroke-linecap="butt" stroke-linejoin="miter" stroke-miterlimit="4" transform="translate(196.636666747 -1.5)" d="M 0 0l 0 1.5"/><path fill="none" stroke="#000000" stroke-width="0.5" stroke-linecap="butt" stroke-linejoin="miter" stroke-miterlimit="4" transform="translate(203.319546916 -1.5)" d="M 0 0l 0 1.5"/><path fill="none" stroke="#000000" stroke-width="0.5" stroke-linecap="butt" stroke-linejoin="miter" stroke-miterlimit="4" transform="translate(210.002427085 -1.5)" d="M 0 0l 0 1.5"/><path fill="none" stroke="#000000" stroke-width="0.5" stroke-linecap="butt" stroke-linejoin="miter" stroke-miterlimit="4" transform="translate(223.368187423 -1.5)" d="M 0 0l 0 1.5"/><path fill="none" stroke="#000000" stroke-width="0.5" stroke-linecap="butt" stroke-linejoin="miter" stroke-miterlimit="4" transform="translate(230.051067592 -1.5)" d="M 0 0l 0 1.5"/><path fill="none" stroke="#000000" stroke-width="0.5" stroke-linecap="butt" stroke-linejoin="miter" stroke-miterlimit="4" transform="translate(236.733947761 -1.5)" d="M 0 0l 0 1.5"/><path fill="none" stroke="#000000" stroke-width="0.5" stroke-linecap="butt" stroke-linejoin="miter" stroke-miterlimit="4" transform="translate(243.41682793 -1.5)" d="M 0 0l 0 1.5"/><path fill="none" stroke="#000000" stroke-width="0.5" stroke-linecap="butt" stroke-linejoin="miter" stroke-miterlimit="4" transform="translate(256.782588268 -1.5)" d="M 0 0l 0 1.5"/><path fill="none" stroke="#000000" stroke-width="0.5" stroke-linecap="butt" stroke-linejoin="miter" stroke-miterlimit="4" transform="translate(263.465468437 -1.5)" d="M 0 0l 0 1.5"/><path fill="none" stroke="#000000" stroke-width="0.5" stroke-linecap="butt" stroke-linejoin="miter" stroke-miterlimit="4" transform="translate(270.148348606 -1.5)" d="M 0 0l 0 1.5"/><path fill="none" stroke="#000000" stroke-width="0.5" stroke-linecap="butt" stroke-linejoin="miter" stroke-miterlimit="4" transform="translate(276.831228775 -1.5)" d="M 0 0l 0 1.5"/></g><g transform="translate(0 198.42519685)"/><g><path fill="none" stroke="#000000" stroke-width="0.5" stroke-linecap="square" stroke-linejoin="miter" stroke-miterlimit="4" d="M 0 0h 283.464566929"/></g><g><path fill="none" stroke="#000000" stroke-width="0.5" stroke-linecap="butt" stroke-linejoin="miter" stroke-miterlimit="4" transform="translate(16.198902184)" d="M 0 0l 0 3"/><path fill="none" stroke="#000000" stroke-width="0.5" stroke-linecap="butt" stroke-linejoin="miter" stroke-miterlimit="4" transform="translate(49.613303029)" d="M 0 0l 0 3"/><path fill="none" stroke="#000000" stroke-width="0.5" stroke-linecap="butt" stroke-linejoin="miter" stroke-miterlimit="4" transform="translate(83.027703874)" d="M 0 0l 0 3"/><path fill="none" stroke="#000000" stroke-width="0.5" stroke-linecap="butt" stroke-linejoin="miter" stroke-miterlimit="4" transform="translate(116.442104719)" d="M 0 0l 0 3"/><path fill="none" stroke="#000000" stroke-width="0.5" stroke-linecap="butt" stroke-linejoin="miter" stroke-miterlimit="4" transform="translate(149.856505564)" d="M 0 0l 0 3"/><path fill="none" stroke="#000000" stroke-width="0.5" stroke-linecap="butt" stroke-linejoin="miter" stroke-miterlimit="4" transform="translate(183.270906409)" d="M 0 0l 0 3"/><path fill="none" stroke="#000000" stroke-width="0.5" stroke-linecap="butt" stroke-linejoin="miter" stroke-miterlimit="4" transform="translate(216.685307254)" d="M 0 0l 0 3"/><path fill="none" stroke="#000000" stroke-width="0.5" stroke-linecap="butt" stroke-linejoin="miter" stroke-miterlimit="4" transform="translate(250.099708099)" d="M 0 0l 0 3"/></g><g><path fill="none" stroke="#000000" stroke-width="0.5" stroke-linecap="butt" stroke-linejoin="miter" stroke-miterlimit="4" transform="translate(2.833141846)" d="M 0 0l 0 1.5"/><path fill="none" stroke="#000000" stroke-width="0.5" stroke-linecap="butt" stroke-linejoin="miter" stroke-miterlimit="4" transform="translate(9.516022015)" d="M 0 0l 0 1.5"/><path fill="none" stroke="#000000" stroke-width="0.5" stroke-linecap="butt" stroke-linejoin="miter" stroke-miterlimit="4" transform="translate(22.881782353)" d="M 0 0l 0 1.5"/><path fill="none" stroke="#000000" stroke-width="0.5" stroke-linecap="butt" stroke-linejoin="miter" stroke-miterlimit="4" transform="translate(29.564662522)" d="M 0 0l 0 1.5"/><path fill="none" stroke="#000000" stroke-width="0.5" stroke-linecap="butt" stroke-linejoin="miter" stroke-miterlimit="4" transform="translate(36.247542691)" d="M 0 0l 0 1.5"/><path fill="none" stroke="#000000" stroke-width="0.5" stroke-linecap="butt" stroke-linejoin="miter" stroke-miterlimit="4" transform="translate(42.93042286)" d="M 0 0l 0 1.5"/><path fill="none" stroke="#000000" stroke-width="0.5" stroke-linecap="butt" stroke-linejoin="miter" stroke-miterlimit="4" transform="translate(56.296183198)" d="M 0 0l 0 1.5"/><path fill="none" stroke="#000000" stroke-width="0.5" stroke-linecap="butt" stroke-linejoin="miter" stroke-miterlimit="4" transform="translate(62.979063367)" d="M 0 0l 0 1.5"/><path fill="none" stroke="#000000" stroke-width="0.5" stroke-linecap="butt" stroke-linejoin="miter" stroke-miterlimit="4" transform="translate(69.661943536)" d="M 0 0l 0 1.5"/><path fill="none" stroke="#000000" stroke-width="0.5" stroke-linecap="butt" stroke-linejoin="miter" stroke-miterlimit="4" transform="translate(76.344823705)" d="M 0 0l 0 1.5"/><path fill="none" stroke="#000000" stroke-width="0.5" stroke-linecap="butt" stroke-linejoin="miter" stroke-miterlimit="4" transform="translate(89.710584043)" d="M 0 0l 0 1.5"/><path fill="none" stroke="#000000" stroke-width="0.5" stroke-linecap="butt" stroke-linejoin="miter" stroke-miterlimit="4" transform="translate(96.393464212)" d="M 0 0l 0 1.5"/><path fill="none" stroke="#000000" stroke-width="0.5" stroke-linecap="butt" stroke-linejoin="miter" stroke-miterlimit="4" transform="translate(103.076344381)" d="M 0 0l 0 1.5"/><path fill="none" stroke="#000000" stroke-width="0.5" stroke-linecap="butt" stroke-linejoin="miter" stroke-miterlimit="4" transform="translate(109.75922455)" d="M 0 0l 0 1.5"/><path fill="none" stroke="#000000" stroke-width="0.5" stroke-linecap="butt" stroke-linejoin="miter" stroke-miterlimit="4" transform="translate(123.124984888)" d="M 0 0l 0 1.5"/><path fill="none" stroke="#000000" stroke-width="0.5" stroke-linecap="butt" stroke-linejoin="miter" stroke-miterlimit="4" transform="translate(129.807865057)" d="M 0 0l 0 1.5"/><path fill="none" stroke="#000000" stroke-width="0.5" stroke-linecap="butt" stroke-linejoin="miter" stroke-miterlimit="4" transform="translate(136.490745226)" d="M 0 0l 0 1.5"/><path fill="none" stroke="#000000" stroke-width="0.5" stroke-linecap="butt" stroke-linejoin="miter" stroke-miterlimit="4" transform="translate(143.173625395)" d="M 0 0l 0 1.5"/><path fill="none" stroke="#000000" stroke-width="0.5" stroke-linecap="butt" stroke-linejoin="miter" stroke-miterlimit="4" transform="translate(156.539385733)" d="M 0 0l 0 1.5"/><path fill="none" stroke="#000000" stroke-width="0.5" stroke-linecap="butt" stroke-linejoin="miter" stroke-miterlimit="4" transform="translate(163.222265902)" d="M 0 0l 0 1.5"/><path fill="none" stroke="#000000" stroke-width="0.5" stroke-linecap="butt" stroke-linejoin="miter" stroke-miterlimit="4" transform="translate(169.905146071)" d="M 0 0l 0 1.5"/><path fill="none" stroke="#000000" stroke-width="0.5" stroke-linecap="butt" stroke-linejoin="miter" stroke-miterlimit="4" transform="translate(176.58802624)" d="M 0 0l 0 1.5"/><path fill="none" stroke="#000000" stroke-width="0.5" stroke-linecap="butt" stroke-linejoin="miter" stroke-miterlimit="4" transform="translate(189.953786578)" d="M 0 0l 0 1.5"/><path fill="none" stroke="#000000" stroke-width="0.5" stroke-linecap="butt" stroke-linejoin="miter" stroke-miterlimit="4" transform="translate(196.636666747)" d="M 0 0l 0 1.5"/><path fill="none" stroke="#000000" stroke-width="0.5" stroke-linecap="butt" stroke-linejoin="miter" stroke-miterlimit="4" transform="translate(203.319546916)" d="M 0 0l 0 1.5"/><path fill="none" stroke="#000000" stroke-width="0.5" stroke-linecap="butt" stroke-linejoin="miter" stroke-miterlimit="4" transform="translate(210.002427085)" d="M 0 0l 0 1.5"/><path fill="none" stroke="#000000" stroke-width="0.5" stroke-linecap="butt" stroke-linejoin="miter" stroke-miterlimit="4" transform="translate(223.368187423)" d="M 0 0l 0 1.5"/><path fill="none" stroke="#000000" stroke-width="0.5" stroke-linecap="butt" stroke-linejoin="miter" stroke-miterlimit="4" transform="translate(230.051067592)" d="M 0 0l 0 1.5"/><path fill="none" stroke="#000000" stroke-width="0.5" stroke-linecap="butt" stroke-linejoin="miter" stroke-miterlimit="4" transform="translate(236.733947761)" d="M 0 0l 0 1.5"/><path fill="none" stroke="#000000" stroke-width="0.5" stroke-linecap="butt" stroke-linejoin="miter" stroke-miterlimit="4" transform="translate(243.41682793)" d="M 0 0l 0 1.5"/><path fill="none" stroke="#000000" stroke-width="0.5" stroke-linecap="butt" stroke-linejoin="miter" stroke-miterlimit="4" transform="translate(256.782588268)" d="M 0 0l 0 1.5"/><path fill="none" stroke="#000000" stroke-width="0.5" stroke-linecap="butt" stroke-linejoin="miter" stroke-miterlimit="4" transform="translate(263.465468437)" d="M 0 0l 0 1.5"/><path fill="none" stroke="#000000" stroke-width="0.5" stroke-linecap="butt" stroke-linejoin="miter" stroke-miterlimit="4" transform="translate(270.148348606)" d="M 0 0l 0 1.5"/><path fill="none" stroke="#000000" stroke-width="0.5" stroke-linecap="butt" stroke-linejoin="miter" stroke-miterlimit="4" transform="translate(276.831228775)" d="M 0 0l 0 1.5"/></g><g/><g><path fill="none" stroke="#000000" stroke-width="0.5" stroke-linecap="square" stroke-linejoin="miter" stroke-miterlimit="4" d="M 0 0l 0 198.42519685"/></g><g><path fill="none" stroke="#000000" stroke-width="0.5" stroke-linecap="butt" stroke-linejoin="miter" stroke-miterlimit="4" transform="translate(0 167.746635084)" d="M 0 0h 3"/><g transform="matrix(1 0 0 -1 -19.558 171.503135084)"><use xlink:href="#g42BC0E45FE1CA00809CACE3263ECCA83" x="0" y="0" fill="#000000" fill-rule="nonzero"/></g><g transform="matrix(1 0 0 -1 -14.058 171.503135084)"><use xlink:href="#gFB3058E5B2D0C91C9614F682027746E3" x="0" y="0" fill="#000000" fill-rule="nonzero"/></g><g transform="matrix(1 0 0 -1 -11 171.503135084)"><use xlink:href="#g42BC0E45FE1CA00809CACE3263ECCA83" x="0" y="0" fill="#000000" fill-rule="nonzero"/></g><path fill="none" stroke="#000000" stroke-width="0.5" stroke-linecap="butt" stroke-linejoin="miter" stroke-miterlimit="4" transform="translate(0 134.332234239)" d="M 0 0h 3"/><g transform="matrix(1 0 0 -1 -19.558 138.088734239)"><use xlink:href="#g42BC0E45FE1CA00809CACE3263ECCA83" x="0" y="0" fill="#000000" fill-rule="nonzero"/></g><g transform="matrix(1 0 0 -1 -14.058 138.088734239)"><use xlink:href="#gFB3058E5B2D0C91C9614F682027746E3" x="0" y="0" fill="#000000" fill-rule="nonzero"/></g><g transform="matrix(1 0 0 -1 -11 138.088734239)"><use xlink:href="#gD91386F46490ADA6717FBC30CA1A2EF" x="0" y="0" fill="#000000" fill-rule="nonzero"/></g><path fill="none" stroke="#000000" stroke-width="0.5" stroke-linecap="butt" stroke-linejoin="miter" stroke-miterlimit="4" transform="translate(0 100.917833394)" d="M 0 0h 3"/><g transform="matrix(1 0 0 -1 -19.558 104.674333394)"><use xlink:href="#gDB748D06F08588DAF9B3A003946E2790" x="0" y="0" fill="#000000" fill-rule="nonzero"/></g><g transform="matrix(1 0 0 -1 -14.058 104.674333394)"><use xlink:href="#gFB3058E5B2D0C91C9614F682027746E3" x="0" y="0" fill="#000000" fill-rule="nonzero"/></g><g transform="matrix(1 0 0 -1 -11 104.674333394)"><use xlink:href="#g42BC0E45FE1CA00809CACE3263ECCA83" x="0" y="0" fill="#000000" fill-rule="nonzero"/></g><path fill="none" stroke="#000000" stroke-width="0.5" stroke-linecap="butt" stroke-linejoin="miter" stroke-miterlimit="4" transform="translate(0 67.503432549)" d="M 0 0h 3"/><g transform="matrix(1 0 0 -1 -19.558 71.259932549)"><use xlink:href="#gDB748D06F08588DAF9B3A003946E2790" x="0" y="0" fill="#000000" fill-rule="nonzero"/></g><g transform="matrix(1 0 0 -1 -14.058 71.259932549)"><use xlink:href="#gFB3058E5B2D0C91C9614F682027746E3" x="0" y="0" fill="#000000" fill-rule="nonzero"/></g><g transform="matrix(1 0 0 -1 -11 71.259932549)"><use xlink:href="#gD91386F46490ADA6717FBC30CA1A2EF" x="0" y="0" fill="#000000" fill-rule="nonzero"/></g><path fill="none" stroke="#000000" stroke-width="0.5" stroke-linecap="butt" stroke-linejoin="miter" stroke-miterlimit="4" transform="translate(0 34.089031704)" d="M 0 0h 3"/><g transform="matrix(1 0 0 -1 -19.558 37.845531704)"><use xlink:href="#g843A897272737C82E2FB72B0DF405E2" x="0" y="0" fill="#000000" fill-rule="nonzero"/></g><g transform="matrix(1 0 0 -1 -14.058 37.845531704)"><use xlink:href="#gFB3058E5B2D0C91C9614F682027746E3" x="0" y="0" fill="#000000" fill-rule="nonzero"/></g><g transform="matrix(1 0 0 -1 -11 37.845531704)"><use xlink:href="#g42BC0E45FE1CA00809CACE3263ECCA83" x="0" y="0" fill="#000000" fill-rule="nonzero"/></g><path fill="none" stroke="#000000" stroke-width="0.5" stroke-linecap="butt" stroke-linejoin="miter" stroke-miterlimit="4" transform="translate(0 0.674630859)" d="M 0 0h 3"/><g transform="matrix(1 0 0 -1 -19.558 4.431130859)"><use xlink:href="#g843A897272737C82E2FB72B0DF405E2" x="0" y="0" fill="#000000" fill-rule="nonzero"/></g><g transform="matrix(1 0 0 -1 -14.058 4.431130859)"><use xlink:href="#gFB3058E5B2D0C91C9614F682027746E3" x="0" y="0" fill="#000000" fill-rule="nonzero"/></g><g transform="matrix(1 0 0 -1 -11 4.431130859)"><use xlink:href="#gD91386F46490ADA6717FBC30CA1A2EF" x="0" y="0" fill="#000000" fill-rule="nonzero"/></g></g><g><path fill="none" stroke="#000000" stroke-width="0.5" stroke-linecap="butt" stroke-linejoin="miter" stroke-miterlimit="4" transform="translate(0 194.47815576)" d="M 0 0h 1.5"/><path fill="none" stroke="#000000" stroke-width="0.5" stroke-linecap="butt" stroke-linejoin="miter" stroke-miterlimit="4" transform="translate(0 187.795275591)" d="M 0 0h 1.5"/><path fill="none" stroke="#000000" stroke-width="0.5" stroke-linecap="butt" stroke-linejoin="miter" stroke-miterlimit="4" transform="translate(0 181.112395422)" d="M 0 0h 1.5"/><path fill="none" stroke="#000000" stroke-width="0.5" stroke-linecap="butt" stroke-linejoin="miter" stroke-miterlimit="4" transform="translate(0 174.429515253)" d="M 0 0h 1.5"/><path fill="none" stroke="#000000" stroke-width="0.5" stroke-linecap="butt" stroke-linejoin="miter" stroke-miterlimit="4" transform="translate(0 161.063754915)" d="M 0 0h 1.5"/><path fill="none" stroke="#000000" stroke-width="0.5" stroke-linecap="butt" stroke-linejoin="miter" stroke-miterlimit="4" transform="translate(0 154.380874746)" d="M 0 0h 1.5"/><path fill="none" stroke="#000000" stroke-width="0.5" stroke-linecap="butt" stroke-linejoin="miter" stroke-miterlimit="4" transform="translate(0 147.697994577)" d="M 0 0h 1.5"/><path fill="none" stroke="#000000" stroke-width="0.5" stroke-linecap="butt" stroke-linejoin="miter" stroke-miterlimit="4" transform="translate(0 141.015114408)" d="M 0 0h 1.5"/><path fill="none" stroke="#000000" stroke-width="0.5" stroke-linecap="butt" stroke-linejoin="miter" stroke-miterlimit="4" transform="translate(0 127.64935407)" d="M 0 0h 1.5"/><path fill="none" stroke="#000000" stroke-width="0.5" stroke-linecap="butt" stroke-linejoin="miter" stroke-miterlimit="4" transform="translate(0 120.966473901)" d="M 0 0h 1.5"/><path fill="none" stroke="#000000" stroke-width="0.5" stroke-linecap="butt" stroke-linejoin="miter" stroke-miterlimit="4" transform="translate(0 114.283593732)" d="M 0 0h 1.5"/><path fill="none" stroke="#000000" stroke-width="0.5" stroke-linecap="butt" stroke-linejoin="miter" stroke-miterlimit="4" transform="translate(0 107.600713563)" d="M 0 0h 1.5"/><path fill="none" stroke="#000000" stroke-width="0.5" stroke-linecap="butt" stroke-linejoin="miter" stroke-miterlimit="4" transform="translate(0 94.234953225)" d="M 0 0h 1.5"/><path fill="none" stroke="#000000" stroke-width="0.5" stroke-linecap="butt" stroke-linejoin="miter" stroke-miterlimit="4" transform="translate(0 87.552073056)" d="M 0 0h 1.5"/><path fill="none" stroke="#000000" stroke-width="0.5" stroke-linecap="butt" stroke-linejoin="miter" stroke-miterlimit="4" transform="translate(0 80.869192887)" d="M 0 0h 1.5"/><path fill="none" stroke="#000000" stroke-width="0.5" stroke-linecap="butt" stroke-linejoin="miter" stroke-miterlimit="4" transform="translate(0 74.186312718)" d="M 0 0h 1.5"/><path fill="none" stroke="#000000" stroke-width="0.5" stroke-linecap="butt" stroke-linejoin="miter" stroke-miterlimit="4" transform="translate(0 60.82055238)" d="M 0 0h 1.5"/><path fill="none" stroke="#000000" stroke-width="0.5" stroke-linecap="butt" stroke-linejoin="miter" stroke-miterlimit="4" transform="translate(0 54.137672211)" d="M 0 0h 1.5"/><path fill="none" stroke="#000000" stroke-width="0.5" stroke-linecap="butt" stroke-linejoin="miter" stroke-miterlimit="4" transform="translate(0 47.454792042)" d="M 0 0h 1.5"/><path fill="none" stroke="#000000" stroke-width="0.5" stroke-linecap="butt" stroke-linejoin="miter" stroke-miterlimit="4" transform="translate(0 40.771911873)" d="M 0 0h 1.5"/><path fill="none" stroke="#000000" stroke-width="0.5" stroke-linecap="butt" stroke-linejoin="miter" stroke-miterlimit="4" transform="translate(0 27.406151535)" d="M 0 0h 1.5"/><path fill="none" stroke="#000000" stroke-width="0.5" stroke-linecap="butt" stroke-linejoin="miter" stroke-miterlimit="4" transform="translate(0 20.723271366)" d="M 0 0h 1.5"/><path fill="none" stroke="#000000" stroke-width="0.5" stroke-linecap="butt" stroke-linejoin="miter" stroke-miterlimit="4" transform="translate(0 14.040391197)" d="M 0 0h 1.5"/><path fill="none" stroke="#000000" stroke-width="0.5" stroke-linecap="butt" stroke-linejoin="miter" stroke-miterlimit="4" transform="translate(0 7.357511028)" d="M 0 0h 1.5"/></g><g/><g transform="translate(283.464566929)"><path fill="none" stroke="#000000" stroke-width="0.5" stroke-linecap="square" stroke-linejoin="miter" stroke-miterlimit="4" d="M 0 0l 0 198.42519685"/></g><g transform="translate(283.464566929)"><path fill="none" stroke="#000000" stroke-width="0.5" stroke-linecap="butt" stroke-linejoin="miter" stroke-miterlimit="4" transform="translate(-3 167.746635084)" d="M 0 0h 3"/><path fill="none" stroke="#000000" stroke-width="0.5" stroke-linecap="butt" stroke-linejoin="miter" stroke-miterlimit="4" transform="translate(-3 134.332234239)" d="M 0 0h 3"/><path fill="none" stroke="#000000" stroke-width="0.5" stroke-linecap="butt" stroke-linejoin="miter" stroke-miterlimit="4" transform="translate(-3 100.917833394)" d="M 0 0h 3"/><path fill="none" stroke="#000000" stroke-width="0.5" stroke-linecap="butt" stroke-linejoin="miter" stroke-miterlimit="4" transform="translate(-3 67.503432549)" d="M 0 0h 3"/><path fill="none" stroke="#000000" stroke-width="0.5" stroke-linecap="butt" stroke-linejoin="miter" stroke-miterlimit="4" transform="translate(-3 34.089031704)" d="M 0 0h 3"/><path fill="none" stroke="#000000" stroke-width="0.5" stroke-linecap="butt" stroke-linejoin="miter" stroke-miterlimit="4" transform="translate(-3 0.674630859)" d="M 0 0h 3"/></g><g transform="translate(283.464566929)"><path fill="none" stroke="#000000" stroke-width="0.5" stroke-linecap="butt" stroke-linejoin="miter" stroke-miterlimit="4" transform="translate(-1.5 194.47815576)" d="M 0 0h 1.5"/><path fill="none" stroke="#000000" stroke-width="0.5" stroke-linecap="butt" stroke-linejoin="miter" stroke-miterlimit="4" transform="translate(-1.5 187.795275591)" d="M 0 0h 1.5"/><path fill="none" stroke="#000000" stroke-width="0.5" stroke-linecap="butt" stroke-linejoin="miter" stroke-miterlimit="4" transform="translate(-1.5 181.112395422)" d="M 0 0h 1.5"/><path fill="none" stroke="#000000" stroke-width="0.5" stroke-linecap="butt" stroke-linejoin="miter" stroke-miterlimit="4" transform="translate(-1.5 174.429515253)" d="M 0 0h 1.5"/><path fill="none" stroke="#000000" stroke-width="0.5" stroke-linecap="butt" stroke-linejoin="miter" stroke-miterlimit="4" transform="translate(-1.5 161.063754915)" d="M 0 0h 1.5"/><path fill="none" stroke="#000000" stroke-width="0.5" stroke-linecap="butt" stroke-linejoin="miter" stroke-miterlimit="4" transform="translate(-1.5 154.380874746)" d="M 0 0h 1.5"/><path fill="none" stroke="#000000" stroke-width="0.5" stroke-linecap="butt" stroke-linejoin="miter" stroke-miterlimit="4" transform="translate(-1.5 147.697994577)" d="M 0 0h 1.5"/><path fill="none" stroke="#000000" stroke-width="0.5" stroke-linecap="butt" stroke-linejoin="miter" stroke-miterlimit="4" transform="translate(-1.5 141.015114408)" d="M 0 0h 1.5"/><path fill="none" stroke="#000000" stroke-width="0.5" stroke-linecap="butt" stroke-linejoin="miter" stroke-miterlimit="4" transform="translate(-1.5 127.64935407)" d="M 0 0h 1.5"/><path fill="none" stroke="#000000" stroke-width="0.5" stroke-linecap="butt" stroke-linejoin="miter" stroke-miterlimit="4" transform="translate(-1.5 120.966473901)" d="M 0 0h 1.5"/><path fill="none" stroke="#000000" stroke-width="0.5" stroke-linecap="butt" stroke-linejoin="miter" stroke-miterlimit="4" transform="translate(-1.5 114.283593732)" d="M 0 0h 1.5"/><path fill="none" stroke="#000000" stroke-width="0.5" stroke-linecap="butt" stroke-linejoin="miter" stroke-miterlimit="4" transform="translate(-1.5 107.600713563)" d="M 0 0h 1.5"/><path fill="none" stroke="#000000" stroke-width="0.5" stroke-linecap="butt" stroke-linejoin="miter" stroke-miterlimit="4" transform="translate(-1.5 94.234953225)" d="M 0 0h 1.5"/><path fill="none" stroke="#000000" stroke-width="0.5" stroke-linecap="butt" stroke-linejoin="miter" stroke-miterlimit="4" transform="translate(-1.5 87.552073056)" d="M 0 0h 1.5"/><path fill="none" stroke="#000000" stroke-width="0.5" stroke-linecap="butt" stroke-linejoin="miter" stroke-miterlimit="4" transform="translate(-1.5 80.869192887)" d="M 0 0h 1.5"/><path fill="none" stroke="#000000" stroke-width="0.5" stroke-linecap="butt" stroke-linejoin="miter" stroke-miterlimit="4" transform="translate(-1.5 74.186312718)" d="M 0 0h 1.5"/><path fill="none" stroke="#000000" stroke-width="0.5" stroke-linecap="butt" stroke-linejoin="miter" stroke-miterlimit="4" transform="translate(-1.5 60.82055238)" d="M 0 0h 1.5"/><path fill="none" stroke="#000000" stroke-width="0.5" stroke-linecap="butt" stroke-linejoin="miter" stroke-miterlimit="4" transform="translate(-1.5 54.137672211)" d="M 0 0h 1.5"/><path fill="none" stroke="#000000" stroke-width="0.5" stroke-linecap="butt" stroke-linejoin="miter" stroke-miterlimit="4" transform="translate(-1.5 47.454792042)" d="M 0 0h 1.5"/><path fill="none" stroke="#000000" stroke-width="0.5" stroke-linecap="butt" stroke-linejoin="miter" stroke-miterlimit="4" transform="translate(-1.5 40.771911873)" d="M 0 0h 1.5"/><path fill="none" stroke="#000000" stroke-width="0.5" stroke-linecap="butt" stroke-linejoin="miter" stroke-miterlimit="4" transform="translate(-1.5 27.406151535)" d="M 0 0h 1.5"/><path fill="none" stroke="#000000" stroke-width="0.5" stroke-linecap="butt" stroke-linejoin="miter" stroke-miterlimit="4" transform="translate(-1.5 20.723271366)" d="M 0 0h 1.5"/><path fill="none" stroke="#000000" stroke-width="0.5" stroke-linecap="butt" stroke-linejoin="miter" stroke-miterlimit="4" transform="translate(-1.5 14.040391197)" d="M 0 0h 1.5"/><path fill="none" stroke="#000000" stroke-width="0.5" stroke-linecap="butt" stroke-linejoin="miter" stroke-miterlimit="4" transform="translate(-1.5 7.357511028)" d="M 0 0h 1.5"/></g><g transform="translate(283.464566929)"/><g transform="translate(0 -12.738)"><g transform="matrix(1 0 0 -1 111.141283465 7.238)"><use xlink:href="#g3BC6300649CA32A3B6F5E66435D77781" x="0" y="0" fill="#000000" fill-rule="nonzero"/><use xlink:href="#gDD50B131DFBA2C7EA73123CA4C98C33" x="5.335" y="0" fill="#000000" fill-rule="nonzero"/><use xlink:href="#g36F90904A4043C6A677E73471A30013F" x="8.316" y="0" fill="#000000" fill-rule="nonzero"/><use xlink:href="#gB38329E71763B8BD4CF776D24C5AFFE1" x="11.22" y="0" fill="#000000" fill-rule="nonzero"/><use xlink:href="#gBFE09989B12480F1B7796D69E0D7287C" x="14.696" y="0" fill="#000000" fill-rule="nonzero"/><use xlink:href="#gD91D82170ED5F219BEA1B53E81DC19AF" x="19.613" y="0" fill="#000000" fill-rule="nonzero"/><use xlink:href="#g5A92E01899F34F07E07504597D398CD0" x="26.455" y="0" fill="#000000" fill-rule="nonzero"/><use xlink:href="#gBFE09989B12480F1B7796D69E0D7287C" x="35.684" y="0" fill="#000000" fill-rule="nonzero"/><use xlink:href="#gB38329E71763B8BD4CF776D24C5AFFE1" x="40.601" y="0" fill="#000000" fill-rule="nonzero"/><use xlink:href="#g525D29E90AD4E5DCC336104F62B1760B" x="44.077" y="0" fill="#000000" fill-rule="nonzero"/><use xlink:href="#g5E76F8DBE7C3C7A9A461E8EC1D70F6FB" x="49.995" y="0" fill="#000000" fill-rule="nonzero"/><use xlink:href="#g7FF42B92D9D80783DC2C1CC317042C56" x="55.616" y="0" fill="#000000" fill-rule="nonzero"/></g></g></g></g><defs><symbol id="g6553513FE64203BDE37F7BF6C55D1886" overflow="visible"><path d="M 0 0m 3.85 1.342v 4.202c 0 0.704 0.11 1.122 0.506 1.122h 0.242c 0.825 0 1.342 -0.286 1.529 -1.133c 0.121 0 0.275 0.011 0.374 0.055c -0.077 0.506 -0.132 1.067 -0.143 1.562c 0 0.011 -0.022 0.033 -0.033 0.033c -0.374 -0.033 -1.595 -0.088 -2.464 -0.088h -0.946c -0.847 0 -2.145 0.055 -2.563 0.088c -0.022 0 -0.044 -0.022 -0.044 -0.033c -0.044 -0.495 -0.154 -1.067 -0.275 -1.595c 0.11 -0.044 0.242 -0.055 0.374 -0.055c 0.22 0.88 0.726 1.166 1.452 1.166h 0.539c 0.407 0 0.517 -0.418 0.517 -1.089v -4.235c 0 -0.913 -0.187 -0.968 -1.067 -1.001c -0.066 -0.066 -0.066 -0.297 0 -0.363c 0.539 0.011 1.1 0.022 1.54 0.022c 0.418 0 0.979 -0.011 1.529 -0.022c 0.066 0.066 0.066 0.297 0 0.363c -0.88 0.033 -1.067 0.088 -1.067 1.001Z "/></symbol><symbol id="g9787446D80B11CDE2529516BF2D1ACCA" overflow="visible"><path d="M 0 0m 3.223 0.528c 0.066 -0.341 0.187 -0.638 0.737 -0.638c 0.418 0 0.814 0.187 1.045 0.407c -0.022 0.132 -0.066 0.231 -0.187 0.297c -0.077 -0.066 -0.264 -0.176 -0.407 -0.176c -0.319 0 -0.33 0.429 -0.33 0.935v 1.617c 0 1.562 -0.858 1.859 -1.661 1.859c -0.902 0 -1.815 -0.594 -1.815 -1.221c 0 -0.264 0.132 -0.396 0.385 -0.396c 0.319 0 0.517 0.231 0.517 0.374c 0 0.077 -0.011 0.154 -0.033 0.198c -0.011 0.033 -0.022 0.099 -0.022 0.22c 0 0.341 0.462 0.462 0.88 0.462c 0.374 0 0.891 -0.187 0.891 -1.43c 0 -0.077 -0.033 -0.121 -0.066 -0.132l -0.946 -0.231c -1.056 -0.264 -1.815 -0.847 -1.815 -1.595c 0 -0.902 0.616 -1.188 1.386 -1.188c 0.385 0 0.715 0.088 1.199 0.462l 0.22 0.176Z m 0 2.035v -1.452c 0 -0.143 -0.066 -0.22 -0.154 -0.286c -0.286 -0.231 -0.66 -0.484 -0.968 -0.484c -0.55 0 -0.792 0.44 -0.792 0.781c 0 0.495 0.231 1.001 1.045 1.21Z "/></symbol><symbol id="gD91D82170ED5F219BEA1B53E81DC19AF" overflow="visible"><path d="M 0 0m 1.936 3.938c -0.022 0.44 -0.033 0.726 -0.088 0.836c -0.022 0.055 -0.044 0.088 -0.132 0.088c -0.308 -0.121 -0.594 -0.22 -1.353 -0.319c -0.022 -0.066 0 -0.242 0.022 -0.308c 0.594 -0.055 0.715 -0.11 0.715 -0.748v -2.145c 0 -0.913 -0.132 -0.957 -0.814 -1.001c -0.066 -0.066 -0.066 -0.297 0 -0.363c 0.385 0.011 0.814 0.022 1.254 0.022c 0.44 0 0.946 -0.011 1.331 -0.022c 0.066 0.066 0.066 0.297 0 0.363c -0.77 0.055 -0.902 0.088 -0.902 1.001v 1.529c 0 0.286 0.132 0.539 0.264 0.737c 0.121 0.176 0.374 0.539 0.506 0.539c 0.099 0 0.198 -0.022 0.286 -0.143c 0.077 -0.11 0.209 -0.253 0.396 -0.253c 0.264 0 0.517 0.275 0.517 0.55c 0 0.209 -0.198 0.528 -0.66 0.528c -0.517 0 -0.968 -0.484 -1.221 -0.913c -0.066 -0.121 -0.121 -0.033 -0.121 0.022Z "/></symbol><symbol id="gEEC20B8710F33D8A6862F31BD530D033" overflow="visible"><path d="M 0 0m 4.884 4.257c 0.209 0 0.407 0.198 0.407 0.418c 0 0.231 -0.209 0.407 -0.506 0.407c -0.286 0 -0.814 -0.187 -1.1 -0.561c -0.132 0.088 -0.495 0.308 -1.144 0.308c -0.979 0 -1.881 -0.66 -1.881 -1.672c 0 -0.594 0.264 -0.935 0.572 -1.232c -0.308 -0.264 -0.484 -0.737 -0.484 -1.111c 0 -0.396 0.22 -0.704 0.506 -0.847c -0.594 -0.352 -0.902 -0.858 -0.902 -1.331c 0 -0.957 0.902 -1.254 1.749 -1.254c 1.485 0 3.091 0.715 3.091 1.903c 0 0.352 -0.165 0.627 -0.484 0.891c -0.429 0.352 -1.199 0.363 -1.606 0.363c -0.198 0 -0.473 -0.022 -0.737 -0.055c -0.165 -0.011 -0.275 -0.022 -0.33 -0.022c -0.319 0 -0.704 0.154 -0.704 0.627c 0 0.22 0.066 0.451 0.198 0.638c 0.264 -0.154 0.572 -0.231 1.001 -0.231c 0.968 0 1.859 0.605 1.859 1.683c 0 0.517 -0.154 0.814 -0.473 1.144c 0.077 0.11 0.297 0.264 0.44 0.264c 0.077 0 0.154 -0.033 0.22 -0.132c 0.044 -0.088 0.187 -0.198 0.308 -0.198Z m -3.432 -4.367c 0.121 -0.033 0.297 -0.055 0.44 -0.055c 0.341 0 0.649 0.033 0.803 0.033c 0.55 0 1.012 -0.011 1.331 -0.187c 0.429 -0.242 0.561 -0.396 0.561 -0.682c 0 -0.792 -1.166 -1.21 -2.156 -1.21c -0.396 0 -1.32 0.319 -1.32 1.067c 0 0.374 0.022 0.649 0.341 1.034Z m 2.057 3.179c 0 -1.023 -0.517 -1.232 -0.924 -1.232c -0.924 0 -1.023 0.781 -1.023 1.485c 0 0.77 0.275 1.166 0.88 1.166c 0.693 0 1.067 -0.506 1.067 -1.419Z "/></symbol><symbol id="gBFE09989B12480F1B7796D69E0D7287C" overflow="visible"><path d="M 0 0m 4.246 1.023c -0.407 -0.418 -0.726 -0.594 -1.364 -0.594c -0.396 0 -0.858 0.231 -1.199 0.792c -0.22 0.363 -0.352 0.869 -0.352 1.507l 2.926 -0.022c 0.132 0 0.209 0.066 0.209 0.187c 0 0.924 -0.33 1.914 -1.859 1.914c -0.957 0 -2.2 -0.913 -2.2 -2.585c 0 -0.616 0.154 -1.21 0.517 -1.628c 0.374 -0.44 0.891 -0.704 1.683 -0.704c 0.836 0 1.43 0.385 1.87 0.957c -0.033 0.11 -0.099 0.165 -0.231 0.176Z m -2.882 2.079c 0.209 1.243 0.979 1.342 1.243 1.342c 0.418 0 0.913 -0.231 0.913 -1.155c 0 -0.099 -0.044 -0.154 -0.165 -0.154Z "/></symbol><symbol id="gB38329E71763B8BD4CF776D24C5AFFE1" overflow="visible"><path d="M 0 0m 0.473 4.719c -0.154 0 -0.198 -0.132 -0.198 -0.22v -0.143c 0 -0.055 0.011 -0.066 0.055 -0.066h 0.649v -3.311c 0 -0.781 0.341 -1.089 0.847 -1.089c 0.506 0 1.056 0.242 1.485 0.726c -0.022 0.11 -0.088 0.176 -0.198 0.187c -0.286 -0.22 -0.616 -0.308 -0.902 -0.308c -0.297 0 -0.363 0.33 -0.363 1.012v 2.783h 1.144c 0.11 0 0.264 0.044 0.264 0.143v 0.22c 0 0.044 -0.033 0.066 -0.088 0.066h -1.32v 0.429c 0 0.715 0.044 1.155 0.044 1.155c 0 0.066 -0.033 0.099 -0.088 0.099c -0.044 0 -0.143 -0.044 -0.242 -0.099c -0.121 -0.066 -0.231 -0.121 -0.374 -0.154c -0.132 -0.044 -0.242 -0.077 -0.242 -0.154c 0 -0.132 0.033 -0.055 0.033 -1.276Z "/></symbol><symbol id="gD355BF4F81D64465081A1B40E1986DB4" overflow="visible"><path d="M 0 0m 4.345 6.941c -0.638 0.088 -0.616 0.297 -1.694 0.297c -1.111 0 -2.09 -0.737 -2.09 -1.903c 0 -1.155 0.957 -1.683 1.925 -2.057c 0.66 -0.253 1.474 -0.561 1.474 -1.639c 0 -0.891 -0.495 -1.353 -1.375 -1.353c -1.023 0 -1.683 0.473 -1.925 1.562c -0.143 0.044 -0.253 0.022 -0.363 -0.033c 0.044 -0.847 0.088 -1.133 0.22 -1.672c 0.693 0 1.001 -0.253 1.98 -0.253c 0.495 0 0.968 0.121 1.353 0.363c 0.638 0.396 1.034 1.067 1.034 1.771c 0 1.166 -0.88 1.683 -1.782 2.024c -0.66 0.242 -1.76 0.66 -1.76 1.584c 0 0.616 0.561 1.232 1.21 1.232c 1.067 0 1.408 -0.682 1.628 -1.408c 0.121 -0.022 0.264 -0.011 0.363 0.066c -0.044 0.528 -0.088 0.836 -0.198 1.419Z "/></symbol><symbol id="g5E76F8DBE7C3C7A9A461E8EC1D70F6FB" overflow="visible"><path d="M 0 0m 0.451 2.255c 0 -1.122 0.748 -2.365 2.31 -2.365c 0.704 0 1.243 0.253 1.617 0.616c 0.495 0.484 0.715 1.177 0.715 1.848c 0 1.144 -0.627 2.475 -2.31 2.475c -0.726 0 -1.32 -0.297 -1.727 -0.77c -0.396 -0.473 -0.605 -1.111 -0.605 -1.804Z m 2.167 2.189c 0.946 0 1.529 -0.858 1.529 -2.442c 0 -1.386 -0.715 -1.727 -1.232 -1.727c -1.144 0 -1.518 1.386 -1.518 2.233c 0 0.957 0.231 1.936 1.221 1.936Z "/></symbol><symbol id="g36F90904A4043C6A677E73471A30013F" overflow="visible"><path d="M 0 0m 1.045 1.342c 0 -0.913 -0.121 -0.968 -0.792 -1.001c -0.066 -0.066 -0.066 -0.297 0 -0.363c 0.385 0.011 0.792 0.022 1.232 0.022c 0.44 0 0.858 -0.011 1.221 -0.022c 0.066 0.066 0.066 0.297 0 0.363c -0.671 0.033 -0.792 0.088 -0.792 1.001v 5.071c 0 0.715 0.044 1.155 0.044 1.155c 0 0.077 -0.044 0.11 -0.143 0.11c -0.275 -0.11 -1.1 -0.264 -1.54 -0.297c -0.022 -0.088 0 -0.264 0.066 -0.33c 0.638 -0.044 0.704 -0.077 0.704 -0.902Z "/></symbol><symbol id="g8FE23DF7094EE2D558758B421CB0DF33" overflow="visible"><path d="M 0 0m 2.387 -0.11c 0.429 0 0.946 0.22 1.485 0.66c 0.055 0.044 0.154 0.066 0.165 -0.011c 0.033 -0.275 0.121 -0.649 0.121 -0.649c 0.088 -0.033 0.143 -0.022 0.209 0c 0.242 0.198 0.627 0.363 1.298 0.44c 0.066 0.066 0.066 0.231 0 0.297c -0.704 0.055 -0.803 0.264 -0.803 0.803v 2.112c 0 0.33 0.044 1.133 0.044 1.133c 0 0.033 -0.033 0.066 -0.088 0.066c -0.055 -0.011 -0.22 -0.022 -0.385 -0.022c -0.352 0 -0.748 0.011 -1.122 0.022c -0.066 -0.066 -0.066 -0.297 0 -0.363c 0.539 -0.033 0.682 -0.165 0.682 -0.891v -2.123c 0 -0.209 -0.022 -0.297 -0.176 -0.429c -0.407 -0.352 -0.825 -0.528 -1.1 -0.528c -0.33 0 -0.88 0.154 -0.88 1.133v 2.002c 0 0.33 0.044 1.133 0.044 1.133c 0 0.033 -0.033 0.066 -0.088 0.066c -0.055 -0.011 -0.22 -0.022 -0.385 -0.022c -0.352 0 -0.748 0.011 -1.122 0.022c -0.066 -0.066 -0.066 -0.297 0 -0.363c 0.528 -0.044 0.682 -0.165 0.682 -0.88v -2.112c 0 -0.759 0.33 -1.496 1.419 -1.496Z "/></symbol><symbol id="gDD50B131DFBA2C7EA73123CA4C98C33" overflow="visible"><path d="M 0 0m 1.991 1.342v 2.189c 0 0.55 0.044 1.254 0.044 1.254c 0 0.044 -0.055 0.077 -0.143 0.077c -0.308 -0.121 -0.748 -0.22 -1.507 -0.319c -0.022 -0.066 0 -0.242 0.022 -0.308c 0.605 -0.055 0.715 -0.121 0.715 -0.748v -2.145c 0 -0.913 -0.121 -0.946 -0.792 -1.001c -0.066 -0.066 -0.066 -0.297 0 -0.363c 0.363 0.011 0.792 0.022 1.232 0.022c 0.44 0 0.858 -0.011 1.221 -0.022c 0.066 0.066 0.066 0.297 0 0.363c -0.671 0.044 -0.792 0.088 -0.792 1.001Z m -1.001 5.247c 0 -0.286 0.264 -0.572 0.528 -0.572c 0.308 0 0.572 0.297 0.572 0.528c 0 0.264 -0.231 0.572 -0.528 0.572c -0.264 0 -0.572 -0.264 -0.572 -0.528Z "/></symbol><symbol id="gEB245AFE22C398BE296AC5F7AF6ADF12" overflow="visible"><path d="M 0 0m 2.024 3.938c -0.066 -0.077 -0.132 -0.099 -0.132 0c -0.011 0.297 -0.033 0.726 -0.088 0.836c -0.022 0.055 -0.044 0.088 -0.132 0.088c -0.308 -0.121 -0.594 -0.22 -1.353 -0.319c -0.022 -0.066 0 -0.242 0.022 -0.308c 0.594 -0.055 0.715 -0.11 0.715 -0.748v -2.145c 0 -0.902 -0.11 -0.946 -0.77 -1.001c -0.066 -0.066 -0.066 -0.297 0 -0.363c 0.33 0.011 0.77 0.022 1.21 0.022c 0.44 0 0.77 -0.011 1.1 -0.022c 0.066 0.066 0.066 0.297 0 0.363c -0.561 0.055 -0.671 0.099 -0.671 1.001v 1.804c 0 0.231 0.099 0.363 0.187 0.462c 0.418 0.407 0.913 0.649 1.342 0.649c 0.22 0 0.451 -0.143 0.583 -0.396c 0.11 -0.22 0.132 -0.517 0.132 -0.847v -1.672c 0 -0.902 -0.11 -0.946 -0.682 -1.001c -0.055 -0.066 -0.055 -0.297 0 -0.363c 0.33 0.011 0.682 0.022 1.122 0.022c 0.44 0 0.836 -0.011 1.166 -0.022c 0.055 0.066 0.055 0.297 0 0.363c -0.616 0.055 -0.737 0.099 -0.737 1.001v 1.639c 0 0.605 -0.044 1.133 -0.297 1.474c -0.187 0.242 -0.528 0.374 -0.913 0.374c -0.539 0 -1.155 -0.143 -1.804 -0.891Z "/></symbol><symbol id="gF9510C9866DCA99AFC3FC8A8DB318BDC" overflow="visible"><path d="M 0 0m 1.87 3.938c -0.011 0.33 -0.033 0.726 -0.088 0.836c -0.022 0.055 -0.044 0.088 -0.132 0.088c -0.308 -0.121 -0.594 -0.22 -1.353 -0.319c -0.022 -0.066 0 -0.242 0.022 -0.308c 0.594 -0.055 0.715 -0.11 0.715 -0.748v -2.145c 0 -0.902 -0.143 -0.957 -0.748 -1.001c -0.066 -0.066 -0.066 -0.297 0 -0.363c 0.33 0.011 0.748 0.022 1.188 0.022c 0.44 0 0.781 -0.011 1.111 -0.022c 0.066 0.066 0.066 0.297 0 0.363c -0.561 0.055 -0.682 0.099 -0.682 1.001v 1.804c 0 0.231 0.099 0.363 0.187 0.462c 0.44 0.429 0.847 0.649 1.188 0.649c 0.418 0 0.726 -0.264 0.726 -1.001v -1.914c 0 -0.902 -0.088 -0.957 -0.682 -1.001c -0.055 -0.066 -0.055 -0.297 0 -0.363c 0.275 0.011 0.682 0.022 1.122 0.022c 0.44 0 0.803 -0.011 1.078 -0.022c 0.055 0.066 0.055 0.297 0 0.363c -0.55 0.044 -0.649 0.099 -0.649 1.001v 1.749c 0 0.154 0 0.308 -0.011 0.44c 0.528 0.583 1.023 0.726 1.452 0.726c 0.418 0 0.66 -0.242 0.66 -0.979v -1.936c 0 -0.902 -0.11 -0.957 -0.682 -1.001c -0.055 -0.066 -0.055 -0.297 0 -0.363c 0.275 0.011 0.682 0.022 1.122 0.022c 0.44 0 0.825 -0.011 1.133 -0.022c 0.055 0.066 0.055 0.297 0 0.363c -0.605 0.044 -0.704 0.099 -0.704 1.001v 1.738c 0 0.979 -0.165 1.749 -1.133 1.749c -0.561 0 -1.243 -0.209 -1.815 -0.814c -0.033 -0.033 -0.099 -0.088 -0.121 0.011c -0.099 0.451 -0.528 0.803 -1.1 0.803c -0.638 0 -1.21 -0.374 -1.672 -0.891c -0.055 -0.055 -0.121 -0.132 -0.132 0Z "/></symbol><symbol id="g7FF42B92D9D80783DC2C1CC317042C56" overflow="visible"><path d="M 0 0m 3.674 0.55c 0.055 0.044 0.154 0.066 0.165 -0.011c 0.033 -0.264 0.121 -0.649 0.121 -0.649c 0.088 -0.033 0.143 -0.022 0.209 0c 0.242 0.198 0.627 0.363 1.298 0.44c 0.066 0.066 0.066 0.231 0 0.297c -0.704 0.055 -0.803 0.264 -0.803 0.803v 4.983c 0 0.715 0.044 1.155 0.044 1.155c 0 0.077 -0.044 0.11 -0.143 0.11c -0.275 -0.11 -1.1 -0.264 -1.54 -0.297c -0.022 -0.088 0 -0.264 0.066 -0.33c 0.033 0 0.066 0 0.099 0c 0.484 -0.033 0.605 -0.033 0.605 -0.902v -1.408c 0 -0.077 -0.022 -0.099 -0.099 -0.099c -0.044 0 -0.495 0.187 -0.858 0.187c -0.726 0 -1.21 -0.242 -1.65 -0.66c -0.473 -0.473 -0.759 -1.122 -0.759 -1.936c 0 -1.353 0.682 -2.343 1.87 -2.343c 0.429 0 0.836 0.22 1.375 0.66Z m 0.121 0.814c 0 -0.209 -0.022 -0.297 -0.176 -0.429c -0.407 -0.352 -0.759 -0.528 -1.034 -0.528c -0.594 0 -1.21 0.649 -1.21 2.024c 0 0.792 0.154 1.232 0.319 1.463c 0.341 0.517 0.803 0.55 1.023 0.55c 0.396 0 0.671 -0.143 0.891 -0.396c 0.154 -0.176 0.187 -0.253 0.187 -0.594Z "/></symbol><symbol id="gBAEDC586750ACF975F6148DC31DFF1FD" overflow="visible"><path d="M 0 0m 7.678 2.97h -6.798c -0.176 0 -0.264 -0.077 -0.264 -0.22c 0 -0.143 0.088 -0.22 0.264 -0.22h 6.798c 0.176 0 0.264 0.077 0.264 0.22c 0 0.132 -0.132 0.22 -0.264 0.22Z "/></symbol><symbol id="gDB748D06F08588DAF9B3A003946E2790" overflow="visible"><path d="M 0 0m 2.959 7.326c -0.451 -0.462 -1.111 -0.693 -1.98 -0.693v -0.429c 0.572 0 1.045 0.088 1.408 0.264v -5.566c 0 -0.198 -0.044 -0.33 -0.143 -0.385c -0.099 -0.055 -0.374 -0.088 -0.814 -0.088h -0.385v -0.429c 0.275 0.022 0.869 0.033 1.782 0.033c 0.913 0 1.507 -0.011 1.782 -0.033v 0.429h -0.385c -0.451 0 -0.726 0.033 -0.814 0.088c -0.088 0.055 -0.143 0.187 -0.143 0.385v 6.094c 0 0.264 -0.022 0.33 -0.308 0.33Z "/></symbol><symbol id="gFB3058E5B2D0C91C9614F682027746E3" overflow="visible"><path d="M 0 0m 2.112 0.583c 0 0.319 -0.264 0.583 -0.583 0.583c -0.319 0 -0.583 -0.264 -0.583 -0.583c 0 -0.319 0.264 -0.583 0.583 -0.583c 0.319 0 0.583 0.264 0.583 0.583Z "/></symbol><symbol id="g42BC0E45FE1CA00809CACE3263ECCA83" overflow="visible"><path d="M 0 0m 2.739 -0.242c 1.551 0 2.321 1.254 2.321 3.762c 0 1.683 -0.352 2.805 -1.045 3.355c -0.385 0.297 -0.814 0.451 -1.265 0.451c -1.551 0 -2.321 -1.265 -2.321 -3.806c 0 -2.024 0.539 -3.762 2.31 -3.762Z m 1.232 6.006c 0.077 -0.385 0.11 -1.089 0.11 -2.112c 0 -1.012 -0.044 -1.76 -0.121 -2.244c -0.143 -0.88 -0.55 -1.32 -1.221 -1.32c -0.253 0 -0.506 0.099 -0.737 0.286c -0.297 0.253 -0.473 0.77 -0.55 1.562c -0.033 0.275 -0.044 0.847 -0.044 1.716c 0 0.957 0.033 1.628 0.088 1.991c 0.099 0.605 0.297 0.99 0.605 1.155c 0.242 0.132 0.451 0.198 0.638 0.198c 0.715 0 1.111 -0.583 1.232 -1.232Z "/></symbol><symbol id="gD91386F46490ADA6717FBC30CA1A2EF" overflow="visible"><path d="M 0 0m 1.298 3.465c 0.055 0 0.121 0.044 0.176 0.121c 0.33 0.495 0.781 0.737 1.353 0.737c 0.385 0 0.682 -0.22 0.88 -0.671c 0.121 -0.297 0.187 -0.748 0.187 -1.353c 0 -0.693 -0.088 -1.177 -0.253 -1.463c -0.275 -0.451 -0.649 -0.682 -1.122 -0.682c -0.737 0 -1.32 0.528 -1.518 1.1c 0.033 -0.011 0.055 0 0.099 0c 0.33 0 0.605 0.253 0.605 0.583c 0 0.341 -0.275 0.572 -0.605 0.572c -0.385 0 -0.55 -0.209 -0.55 -0.616c 0 -1.1 0.891 -2.035 1.991 -2.035c 0.671 0 1.243 0.242 1.705 0.726c 0.462 0.484 0.693 1.067 0.693 1.738c 0 0.638 -0.187 1.188 -0.561 1.661c -0.407 0.517 -0.913 0.77 -1.529 0.77c -0.517 0 -0.968 -0.165 -1.331 -0.495v 1.958c 0.297 -0.088 0.583 -0.132 0.88 -0.132c 0.506 0 0.946 0.121 1.32 0.374c 0.341 0.209 0.572 0.418 0.704 0.616c 0.066 0.088 0.099 0.154 0.099 0.187c 0 0.11 -0.055 0.165 -0.165 0.165c -0.605 -0.231 -1.122 -0.352 -1.54 -0.352c -0.495 0 -0.968 0.099 -1.419 0.308c -0.055 0.022 -0.099 0.033 -0.143 0.033c -0.099 0 -0.154 -0.099 -0.154 -0.308v -3.212c 0 -0.231 0 -0.33 0.198 -0.33Z "/></symbol><symbol id="g843A897272737C82E2FB72B0DF405E2" overflow="visible"><path d="M 0 0m 2.607 7.326c -0.561 0 -1.034 -0.198 -1.441 -0.594c -0.407 -0.396 -0.616 -0.858 -0.616 -1.419c 0 -0.374 0.275 -0.649 0.616 -0.649c 0.33 0 0.605 0.286 0.605 0.616c 0 0.363 -0.264 0.616 -0.616 0.616c -0.033 0 -0.055 0 -0.077 -0.011c 0.209 0.539 0.693 1.012 1.386 1.012c 0.902 0 1.408 -0.781 1.408 -1.727c 0 -0.737 -0.374 -1.529 -1.122 -2.365l -2.068 -2.332c -0.143 -0.165 -0.132 -0.154 -0.132 -0.473h 4.081l 0.319 1.98h -0.363c -0.088 -0.561 -0.165 -0.88 -0.231 -0.979c -0.055 -0.055 -0.385 -0.077 -0.99 -0.077h -1.837l 1.067 1.045c 0.748 0.704 1.694 1.463 2.013 2.046c 0.22 0.385 0.33 0.77 0.33 1.155c 0 1.298 -1.012 2.156 -2.332 2.156Z "/></symbol><symbol id="g3BC6300649CA32A3B6F5E66435D77781" overflow="visible"><path d="M 0 0m 3.113 3.553c 0.935 0 0.968 -0.253 1.001 -0.748c 0.066 -0.066 0.297 -0.066 0.363 0c -0.011 0.275 -0.022 0.594 -0.022 0.968c 0 0.374 0.011 0.66 0.022 0.946c -0.066 0.066 -0.297 0.066 -0.363 0c -0.033 -0.605 -0.066 -0.748 -1.001 -0.748h -1.023v 1.98c 0 0.594 0.132 0.704 0.616 0.704h 0.495c 1.166 0 1.441 -0.44 1.683 -1.199c 0.132 0 0.253 0.022 0.341 0.055c -0.055 0.451 -0.22 1.507 -0.242 1.595c 0 0.022 -0.011 0.033 -0.044 0.033c -0.187 -0.033 -0.242 -0.044 -0.517 -0.044h -2.805c -0.352 0 -0.979 0.011 -1.419 0.022c -0.066 -0.066 -0.066 -0.297 0 -0.363c 0.77 -0.033 0.957 -0.088 0.957 -1.001v -4.411c 0 -0.913 -0.187 -0.968 -0.957 -1.001c -0.066 -0.066 -0.066 -0.297 0 -0.363c 0.385 0.011 0.935 0.022 1.43 0.022c 0.495 0 1.034 -0.011 1.419 -0.022c 0.066 0.066 0.066 0.297 0 0.363c -0.77 0.033 -0.957 0.088 -0.957 1.001v 2.211Z "/></symbol><symbol id="g5A92E01899F34F07E07504597D398CD0" overflow="visible"><path d="M 0 0m 7.293 1.276c 0.055 -0.891 0.011 -0.902 -0.704 -0.935c -0.066 -0.066 -0.066 -0.297 0 -0.363c 0.407 0.011 0.847 0.022 1.177 0.022c 0.33 0 0.836 -0.011 1.199 -0.022c 0.066 0.066 0.066 0.297 0 0.363c -0.748 0.033 -0.781 0.077 -0.847 0.99l -0.33 4.631c -0.044 0.594 0.011 0.748 0.759 0.792c 0.066 0.066 0.066 0.297 0 0.363l -1.441 -0.022l -2.332 -5.577c -0.044 -0.11 -0.077 -0.154 -0.099 -0.154c -0.022 0 -0.055 0.055 -0.088 0.143l -2.255 5.588l -1.595 0.022c -0.066 -0.066 -0.066 -0.297 0 -0.363c 0.759 -0.044 0.825 -0.066 0.748 -0.891l -0.44 -4.532c -0.066 -0.66 -0.198 -0.935 -0.825 -0.99c -0.066 -0.066 -0.066 -0.297 0 -0.363c 0.33 0.011 0.682 0.022 0.946 0.022c 0.264 0 0.704 -0.011 1.034 -0.022c 0.066 0.066 0.066 0.297 0 0.363c -0.726 0.055 -0.781 0.396 -0.726 1.012l 0.418 4.411h 0.022l 2.277 -5.709c 0.033 -0.077 0.099 -0.165 0.165 -0.165c 0.066 0 0.11 0.077 0.154 0.165l 2.475 5.819h 0.022Z "/></symbol><symbol id="g525D29E90AD4E5DCC336104F62B1760B" overflow="visible"><path d="M 0 0m 1.837 3.146c 0 0.231 0.099 0.363 0.187 0.462c 0.418 0.407 0.979 0.649 1.408 0.649c 0.22 0 0.451 -0.143 0.583 -0.396c 0.11 -0.22 0.132 -0.517 0.132 -0.847v -1.672c 0 -0.902 -0.11 -0.946 -0.682 -1.001c -0.055 -0.066 -0.055 -0.297 0 -0.363c 0.308 0.011 0.682 0.022 1.122 0.022c 0.44 0 0.803 -0.011 1.166 -0.022c 0.055 0.066 0.055 0.297 0 0.363c -0.616 0.055 -0.737 0.099 -0.737 1.001v 1.639c 0 0.605 -0.044 1.144 -0.297 1.474c -0.187 0.242 -0.528 0.374 -0.913 0.374c -0.539 0 -1.199 -0.143 -1.87 -0.891c 0 -0.011 -0.011 -0.011 -0.022 -0.022c -0.033 -0.044 -0.088 -0.11 -0.088 0.022l 0.011 2.475c 0 0.715 0.044 1.155 0.044 1.155c 0 0.077 -0.044 0.11 -0.143 0.11c -0.275 -0.11 -1.1 -0.264 -1.54 -0.297c -0.022 -0.088 0 -0.264 0.066 -0.33c 0.033 0 0.066 0 0.099 0c 0.484 -0.033 0.605 -0.033 0.605 -0.902v -4.807c 0 -0.913 -0.132 -0.957 -0.77 -1.001c -0.066 -0.066 -0.066 -0.297 0 -0.363c 0.363 0.011 0.77 0.022 1.21 0.022c 0.418 0 0.781 -0.011 1.089 -0.022c 0.066 0.066 0.066 0.297 0 0.363c -0.561 0.044 -0.66 0.088 -0.66 1.001Z "/></symbol></defs><defs><clipPath id="cF5A82E6F9662B2B20E7875B7FEF25729"><path d="M 0 0h 283.464566929v 198.42519685h -283.464566929Z "/></clipPath></defs></svg>